
<svg version="1.1" id="logo" xmlns="http://www.w3.org/2000/svg" xmlns:xlink="http://www.w3.org/1999/xlink" x="0px" y="0px"
	 viewBox="0 0 84 110" enable-background="new 0 0 84 110" xml:space="preserve">
  <defs>
     	<style>
	 		@-webkit-keyframes dash{
	 		0%{stroke-dashoffset:300;}
	 		50%{stroke-dashoffset:0;fill:#FFFFFF;}
	 		100%{ fill:rgb(35,60,110);}
	 		}
            .acell{stroke-dasharray: 300;
	 		stroke-dashoffset:0;
	 		webkit-animation:dash 3s linear forwards;
	 		-moz-webkit-animation:dash 3s linear forwards;
	 		-o-webkit-animation:dash 3s linear forwards;
	 		animation:dash 3s linear forwards;
	 		}
	 		
	 	</style>
	 	 </defs>
<g>
	<path class="outer" fill="#FFFFFF" stroke="#FFFFFF" stroke-width="0" d="M93.567,125.739c-33.022,0-66.044,0-99.067,0
		c0-46.143,0-92.286,0-138.429c33.022,0,66.044,0,99.067,0C93.567,33.453,93.567,79.596,93.567,125.739z M27.236,90.435
		c0,0.028,0,0.056,0,0.084c0.879,0,1.759-0.031,2.637,0.006c3.256,0.137,6.512,0.27,9.766,0.455
		c2.156,0.123,4.307,0.322,6.459,0.508c1.713,0.148,3.425,0.309,5.135,0.495c2.383,0.26,4.765,0.537,7.143,0.841
		c0.419,0.054,0.602-0.083,0.752-0.429c1.234-2.859,1.589-5.848,1.27-8.92c-0.301-2.894-1.328-5.532-2.926-7.959
		c-0.264-0.401-0.445-0.494-0.898-0.227c-3.308,1.949-6.879,2.48-10.642,1.871c-2.341-0.378-4.39-1.458-6.415-2.623
		c-1.343-0.773-2.816-1.203-4.352-1.421c-1.922-0.273-3.79-0.042-5.64,0.502c-2.18,0.641-3.81,1.914-4.499,4.118
		c-0.396,1.266-0.589,2.601-0.816,3.915c-0.47,2.71-0.664,5.446-0.692,8.196c-0.005,0.455,0.129,0.609,0.588,0.597
		C25.148,90.416,26.192,90.435,27.236,90.435z M65.578,94.952c-0.047-0.022-0.087-0.054-0.131-0.059
		c-2.837-0.308-5.672-0.637-8.513-0.914c-3.916-0.382-7.835-0.729-11.753-1.083c-2.059-0.186-4.118-0.38-6.18-0.527
		c-3.469-0.246-6.94-0.484-10.412-0.674c-1.882-0.103-3.77-0.108-5.655-0.135c-0.462-0.006-0.714-0.112-0.724-0.639
		c-0.018-1.024-0.103-2.047-0.138-3.072c-0.159-4.632,0.651-9.122,2.162-13.475c0.882-2.539,2.068-4.953,3.499-7.247
		c1.933-3.098,4.257-5.856,6.959-8.298c1.784-1.612,3.302-3.426,3.849-5.81c1.225-5.332-0.909-8.823-4.939-12.135
		c0.07,0.151,0.093,0.236,0.142,0.301c0.839,1.116,1.247,2.387,1.371,3.764c0.224,2.493-0.211,4.839-1.483,7.021
		c-1.04,1.784-2.497,3.14-4.21,4.251c-2.362,1.532-4.478,3.361-6.358,5.45c-1.778,1.976-3.294,4.142-4.565,6.488
		c-1.607,2.966-2.744,6.097-3.388,9.397c-0.448,2.296-0.849,4.608-1.122,6.931c-0.397,3.379-0.655,6.773-0.988,10.16
		c-0.049,0.496,0.121,0.652,0.607,0.612c1.477-0.122,2.955-0.252,4.435-0.317c4.59-0.202,9.181-0.434,13.774-0.542
		c3.422-0.08,6.849-0.019,10.273,0.039c5.346,0.091,10.692,0.229,16.038,0.356c1.428,0.034,2.854,0.118,4.282,0.151
		C63.46,94.972,64.512,94.952,65.578,94.952z M45.747,55.354c0.041,0.02,0.082,0.039,0.123,0.059c0.45-0.614,0.88-1.244,1.353-1.84
		c1.607-2.026,3.49-3.743,5.723-5.063c2.281-1.348,4.704-2.449,6.816-4.089c1.624-1.26,3.213-2.56,4.519-4.145
		c1.846-2.24,3.319-4.719,4.476-7.391c1.142-2.639,2.18-5.317,2.912-8.097c0.661-2.51,1.272-5.038,1.759-7.586
		c0.401-2.099,0.609-4.236,0.856-6.362c0.08-0.689,0.013-1.395,0.013-2.175c-0.157,0.114-0.214,0.157-0.272,0.197
		c-1.275,0.886-2.482,1.903-3.843,2.628c-1.899,1.011-3.913,1.808-5.88,2.691c-2.399,1.076-4.938,1.705-7.483,2.297
		c-0.477,0.111-0.543,0.267-0.443,0.687c0.341,1.44,0.756,2.872,0.96,4.333c0.283,2.026,0.503,4.072,0.555,6.114
		c0.041,1.582-0.185,3.174-0.348,4.756c-0.226,2.207-0.665,4.373-1.459,6.455c-0.958,2.513-2.313,4.789-4.279,6.632
		c-1.856,1.74-3.579,3.56-4.723,5.863C46.446,52.605,46.011,53.951,45.747,55.354z M54.812,26.045
		c0.177-2.861-0.393-5.642-1.273-8.379c-0.13-0.404-0.327-0.456-0.723-0.429c-1.878,0.127-3.76,0.294-5.639,0.275
		c-1.599-0.016-3.2-0.236-4.793-0.424c-0.977-0.115-1.949-0.307-2.908-0.529c-0.331-0.077-0.476-0.028-0.577,0.266
		c-0.241,0.709-0.538,1.403-0.717,2.127c-0.551,2.232-1.085,4.468-1.572,6.714c-0.616,2.843-0.538,5.675,0.385,8.447
		c1.221,3.668,3.503,6.524,6.83,8.48c1.893,1.113,1.365,1.079,3.223-0.006c2.865-1.672,4.928-4.083,6.105-7.177
		C54.291,32.417,55.003,29.321,54.812,26.045z M21.243,8.231c-0.093,0.153-0.14,0.196-0.146,0.245
		c-0.209,1.741-0.511,3.478-0.598,5.226c-0.143,2.872,0.317,5.69,1.054,8.466c0.557,2.098,1.36,4.099,2.391,6.002
		c0.592,1.092,1.204,2.187,1.934,3.187c1.498,2.052,3.081,4.041,4.632,6.053c0.035,0.046,0.117,0.056,0.205,0.095
		c0.037-0.142,0.076-0.244,0.09-0.349c0.447-3.336,0.969-6.658,1.798-9.925c0.52-2.049,1.008-4.107,1.585-6.14
		c0.463-1.632,1.029-3.236,1.572-4.845c0.142-0.422-0.011-0.6-0.383-0.734c-1.305-0.47-2.608-0.945-3.906-1.435
		c-2.856-1.078-5.498-2.557-7.995-4.305C22.748,9.262,22.012,8.762,21.243,8.231z M50.221,64.55
		c-0.023,0.028-0.045,0.057-0.068,0.085c0.105,0.119,0.205,0.243,0.314,0.357c0.861,0.895,1.75,1.764,2.58,2.687
		c2.073,2.304,3.953,4.761,5.499,7.449c1.587,2.759,2.527,5.735,2.844,8.917c0.235,2.356,0.103,4.673-0.429,6.974
		c-0.142,0.614-0.281,1.229-0.436,1.91c0.829,0.099,1.606,0.18,2.379,0.287c1.704,0.235,3.406,0.48,5.107,0.731
		c0.366,0.054,0.47-0.078,0.398-0.423c-0.083-0.393-0.166-0.788-0.216-1.186c-0.274-2.206-0.88-4.331-1.576-6.431
		c-0.882-2.663-2.047-5.195-3.449-7.631c-1.893-3.291-4.184-6.264-6.924-8.877c-1.319-1.257-2.754-2.395-4.165-3.553
		C51.499,65.367,50.843,64.979,50.221,64.55z M65.943,7.53c0.016-2.332-1.853-4.125-4.038-4.242
		c-2.375-0.127-4.325,1.814-4.407,3.958c-0.098,2.585,2.065,4.375,4.096,4.401C64.027,11.678,65.913,9.894,65.943,7.53z
		 M47.266,6.663c-2.06-0.074-4.335,1.731-4.235,4.365c0.079,2.072,1.897,4.048,4.461,3.969c2.05-0.063,3.922-1.97,3.962-4.028
		C51.505,8.413,49.306,6.603,47.266,6.663z M37.725,7.474c0.08-2.375-1.98-4.212-4.287-4.147c-2.216,0.062-4.211,1.953-4.093,4.393
		c0.105,2.157,1.969,4.006,4.372,3.926C35.939,11.571,37.766,9.696,37.725,7.474z M66.513,100.637
		c0.051-0.002,0.102-0.005,0.153-0.007c0.061,0.265,0.123,0.529,0.182,0.794c0.157,0.714,0.295,1.433,0.483,2.139
		c0.042,0.157,0.262,0.267,0.4,0.399c0.127-0.141,0.324-0.263,0.369-0.427c0.162-0.581,0.272-1.176,0.402-1.765
		c0.079-0.359,0.161-0.717,0.242-1.076c0.131,0.194,0.146,0.369,0.147,0.544c0.007,0.768,0.024,1.537,0.008,2.305
		c-0.009,0.407,0.219,0.423,0.526,0.427c0.322,0.004,0.462-0.1,0.459-0.442c-0.018-1.738-0.018-3.477-0.026-5.215
		c-0.001-0.246-0.003-0.524-0.357-0.473c-0.334,0.048-0.812-0.251-0.95,0.339c-0.162,0.694-0.312,1.39-0.471,2.085
		c-0.098,0.427-0.203,0.853-0.305,1.279c-0.386-1.106-0.664-2.184-0.879-3.275c-0.136-0.687-0.633-0.384-0.994-0.424
		c-0.406-0.045-0.343,0.284-0.344,0.531c-0.004,1.684,0,3.367-0.01,5.051c-0.002,0.331,0.021,0.55,0.457,0.55
		c0.427,0,0.527-0.163,0.517-0.555C66.498,102.493,66.513,101.565,66.513,100.637z M54.744,101.832
		c-0.058-0.001-0.116-0.003-0.174-0.004c-0.054-0.188-0.112-0.374-0.16-0.563c-0.192-0.762-0.372-1.528-0.574-2.288
		c-0.16-0.601-0.662-0.292-1.015-0.339c-0.362-0.049-0.33,0.249-0.331,0.488c-0.002,1.445,0.006,2.891-0.012,4.336
		c-0.005,0.382,0.126,0.512,0.507,0.512c0.372,0,0.473-0.151,0.467-0.493c-0.015-0.807-0.005-1.614-0.005-2.42
		c0.165,0.086,0.204,0.181,0.228,0.28c0.18,0.746,0.339,1.498,0.55,2.235c0.045,0.157,0.277,0.355,0.426,0.358
		c0.141,0.003,0.332-0.201,0.419-0.359c0.103-0.185,0.12-0.418,0.171-0.632c0.155-0.645,0.309-1.29,0.463-1.935
		c0.054,0.006,0.109,0.012,0.163,0.019c0,0.967,0,1.933,0,3.019c0.384-0.216,0.929,0.209,0.93-0.509
		c0.003-1.5-0.003-3.001-0.018-4.501c-0.001-0.125-0.062-0.309-0.155-0.365c-0.448-0.268-1.081,0.018-1.212,0.527
		C55.189,100.074,54.967,100.953,54.744,101.832z M20.056,103.936c0-0.923,0-1.779,0-2.635c0.049-0.009,0.099-0.018,0.148-0.027
		c0.355,0.736,0.723,1.466,1.058,2.211c0.201,0.446,0.493,0.601,0.999,0.413c0.01-0.139,0.032-0.299,0.032-0.459
		c0-1.429-0.012-2.857-0.002-4.286c0.002-0.344-0.05-0.547-0.467-0.554c-0.426-0.008-0.478,0.197-0.466,0.542
		c0.019,0.53,0.008,1.062,0.004,1.593c-0.002,0.197-0.019,0.395-0.03,0.592c-0.519-0.8-0.895-1.615-1.337-2.392
		c-0.1-0.175-0.427-0.251-0.664-0.294c-0.05-0.009-0.232,0.321-0.236,0.498c-0.025,1.263-0.021,2.527-0.025,3.791
		c-0.001,0.325,0,0.65,0,1.007C19.408,103.936,19.673,103.936,20.056,103.936z M26.353,103.908c0-1.741,0-3.471,0-5.195
		c-0.807-0.227-0.909-0.158-0.91,0.595c-0.001,0.664,0,1.327,0,1.991c-0.052,0.009-0.103,0.017-0.155,0.026
		c-0.396-0.794-0.815-1.577-1.179-2.386c-0.151-0.335-0.398-0.409-0.651-0.304c-0.148,0.061-0.286,0.339-0.29,0.522
		c-0.026,1.427-0.006,2.855-0.028,4.283c-0.006,0.401,0.113,0.541,0.529,0.544c0.463,0.003,0.433-0.26,0.43-0.568
		c-0.007-0.719-0.002-1.437-0.002-2.156c0.053-0.011,0.107-0.023,0.16-0.034c0.347,0.716,0.724,1.42,1.032,2.152
		C25.494,103.859,25.759,104.099,26.353,103.908z M14.463,103.906c0.975,0.141,1.033,0.122,1.114-0.569
		c0.043-0.367,0.092-0.66,0.565-0.59c0.417,0.062,0.969-0.235,1.066,0.554c0.093,0.755,0.301,0.826,1.096,0.553
		c-0.39-1.853-0.802-3.706-1.16-5.569c-0.107-0.555-0.462-0.443-0.814-0.467c-0.373-0.026-0.613,0.052-0.692,0.487
		c-0.181,0.989-0.409,1.969-0.617,2.953C14.837,102.13,14.653,103.002,14.463,103.906z M40.677,103.883
		c0.92,0.195,1.006,0.152,1.102-0.62c0.041-0.332,0.122-0.599,0.52-0.524c0.398,0.075,0.976-0.307,1.103,0.494
		c0.131,0.823,0.215,0.838,1.072,0.646c-0.006-0.082-0.002-0.171-0.02-0.255c-0.376-1.77-0.778-3.536-1.118-5.313
		c-0.096-0.504-0.376-0.477-0.737-0.485c-0.376-0.008-0.656,0.006-0.742,0.492c-0.178,1.007-0.421,2.002-0.635,3.002
		C41.039,102.175,40.858,103.03,40.677,103.883z M58.64,101.224c0.052-0.003,0.104-0.007,0.156-0.01
		c0.05,0.094,0.104,0.186,0.151,0.282c0.356,0.721,0.724,1.437,1.059,2.168c0.153,0.334,0.425,0.353,0.679,0.269
		c0.117-0.039,0.225-0.298,0.227-0.459c0.016-1.464-0.003-2.929,0.012-4.393c0.004-0.381-0.167-0.457-0.497-0.462
		c-0.368-0.006-0.415,0.191-0.409,0.487c0.011,0.622,0.006,1.245-0.001,1.867c-0.001,0.124-0.042,0.247-0.065,0.37
		c-0.491-0.741-0.882-1.482-1.222-2.247c-0.209-0.47-0.514-0.556-1.002-0.396c0,1.633-0.001,3.259,0.001,4.885
		c0,0.106,0.018,0.211,0.027,0.307c0.855,0.157,0.884,0.135,0.884-0.661C58.641,102.561,58.64,101.893,58.64,101.224z
		 M30.252,101.034c-0.001,0-0.002,0-0.003,0c0-0.622-0.007-1.244,0.003-1.866c0.005-0.325-0.014-0.561-0.452-0.56
		c-0.421,0.001-0.472,0.207-0.47,0.547c0.005,1.079-0.02,2.159-0.013,3.239c0.003,0.438-0.152,0.621-0.614,0.611
		c-0.468-0.01-0.476-0.284-0.476-0.619c0.002-1.116-0.013-2.233-0.001-3.349c0.004-0.411-0.243-0.422-0.54-0.424
		c-0.291-0.002-0.49,0.048-0.487,0.416c0.009,1.317-0.01,2.635-0.003,3.953c0.002,0.472,0.238,0.854,0.71,0.913
		c0.554,0.069,1.131,0.071,1.684-0.003c0.441-0.059,0.665-0.415,0.663-0.881C30.249,102.351,30.252,101.692,30.252,101.034z
		 M48.603,98.739c0,1.152,0.001,2.32,0,3.488c-0.001,1.585,0.16,1.744,1.768,1.734c0.981-0.006,1.288-0.305,1.29-1.271
		c0.002-1.116-0.002-2.232-0.006-3.348c-0.003-0.779-0.153-0.877-0.949-0.583c0,1.173-0.006,2.361,0.003,3.549
		c0.003,0.402-0.007,0.711-0.563,0.705c-0.568-0.006-0.547-0.349-0.546-0.732c0.002-0.97,0-1.939-0.001-2.909
		C49.596,98.56,49.475,98.476,48.603,98.739z M34.637,103.904c-0.084-0.371-0.155-0.708-0.237-1.042
		c-0.313-1.276-0.649-2.547-0.937-3.828c-0.132-0.589-0.558-0.386-0.906-0.423c-0.361-0.038-0.5,0.127-0.574,0.485
		c-0.155,0.749-0.383,1.483-0.569,2.226c-0.214,0.856-0.415,1.715-0.623,2.578c0.866,0.129,0.849,0.123,1.113-0.602
		c0.056-0.153,0.267-0.303,0.435-0.348c0.221-0.06,0.472,0,0.708-0.018c0.312-0.024,0.449,0.104,0.526,0.41
		C33.748,104.034,33.766,104.03,34.637,103.904z M75.632,101.752c0.465,0,0.931,0,1.384,0c0.174-0.928,0.151-0.958-0.665-0.959
		c-0.11,0-0.221-0.012-0.329,0.002c-0.472,0.06-0.494-0.237-0.477-0.58c0.015-0.319-0.085-0.689,0.46-0.659
		c0.503,0.028,1.01,0.006,1.498,0.006c0.165-0.919,0.139-0.951-0.697-0.949c-0.603,0.002-1.207,0.007-1.81,0.004
		c-0.265-0.001-0.468,0.038-0.467,0.378c0.004,1.536-0.007,3.072,0.007,4.608c0.001,0.12,0.151,0.339,0.236,0.341
		c0.922,0.025,1.846,0.016,2.818,0.016c-0.019-0.37-0.033-0.65-0.05-0.962c-0.408,0-0.754,0-1.1,0c-0.964,0-0.973-0.009-0.88-0.981
		C75.565,101.946,75.595,101.879,75.632,101.752z M73.611,103.93c0.188-0.901,0.166-0.931-0.655-0.933c-0.092,0-0.183,0-0.275,0
		c-1.066-0.002-1.066-0.002-0.978-1.083c0.003-0.032,0.032-0.062,0.089-0.165c0.442,0,0.926,0,1.394,0
		c0.163-0.906,0.125-0.952-0.704-0.956c-0.11,0-0.221-0.012-0.329,0.001c-0.529,0.063-0.47-0.297-0.479-0.633
		c-0.01-0.364-0.001-0.651,0.505-0.611c0.484,0.039,0.973,0.008,1.444,0.008c0.129-0.938,0.127-0.941-0.68-0.943
		c-0.586-0.001-1.172,0.018-1.757-0.005c-0.386-0.015-0.501,0.129-0.496,0.509c0.017,1.482,0.002,2.965,0.003,4.448
		c0,0.12,0.039,0.24,0.061,0.362C71.732,103.93,72.675,103.93,73.611,103.93z M6.883,97.903c-0.699-0.217-1.129-0.072-1.445,0.516
		c-0.38,0.707-0.836,1.373-1.256,2.058c-0.133,0.218-0.287,0.429-0.382,0.663c-0.282,0.695-0.056,1.031,0.668,1.03
		c0.523-0.001,1.046,0,1.637,0c0,0.641,0,1.198,0,1.741c0.931,0.147,0.952,0.13,0.954-0.703c0-0.165-0.002-0.329,0.001-0.494
		c0.005-0.245-0.055-0.484,0.316-0.586c0.271-0.075,0.214-0.734-0.016-0.935c-0.136-0.119-0.272-0.311-0.287-0.481
		c-0.03-0.337-0.021-0.595-0.494-0.59c-0.453,0.004-0.518,0.219-0.491,0.582c0.01,0.139-0.023,0.281-0.038,0.427
		c-0.349,0-0.66,0-1.071,0C5.637,100.016,6.245,98.985,6.883,97.903z M81.114,99.538c0.122-0.931,0.122-0.931-0.726-0.931
		c-0.585,0-1.17,0.011-1.754-0.001c-0.34-0.008-0.547,0.051-0.55,0.471c-0.002,0.393,0.14,0.539,0.511,0.484
		c0.435-0.065,0.516,0.153,0.508,0.539c-0.022,1.114,0.003,2.23-0.017,3.344c-0.007,0.405,0.133,0.535,0.539,0.539
		c0.421,0.004,0.604-0.118,0.589-0.553c-0.022-0.639-0.011-1.279-0.012-1.919c-0.001-0.634,0-1.268,0-1.921
		C80.545,99.571,80.813,99.555,81.114,99.538z M47.847,103.957c0.149-0.958,0.149-0.958-0.73-0.956c-0.091,0-0.184-0.01-0.274,0.002
		c-0.446,0.063-0.609-0.106-0.597-0.572c0.029-1.134-0.002-2.269,0.012-3.403c0.005-0.376-0.202-0.408-0.49-0.405
		c-0.277,0.002-0.513,0.006-0.513,0.387c0.002,1.519-0.013,3.037,0.001,4.555c0.001,0.132,0.165,0.371,0.261,0.375
		C46.297,103.971,47.078,103.957,47.847,103.957z M37.892,102.989c-0.504,0-1.005,0-1.568,0c0-0.292,0.001-0.508,0-0.724
		c-0.003-1.08-0.017-2.161-0.005-3.241c0.004-0.373-0.197-0.423-0.487-0.407c-0.254,0.014-0.523-0.029-0.521,0.375
		c0.009,1.538-0.005,3.076,0.009,4.614c0.001,0.117,0.151,0.331,0.237,0.334c0.795,0.026,1.591,0.015,2.408,0.015
		c0-0.273,0.006-0.455-0.003-0.635C37.958,103.234,37.927,103.148,37.892,102.989z M1.737,103.897
		c1.028,0.191,1.047,0.177,1.046-0.702c-0.001-1.573-0.001-3.145-0.005-4.718c-0.001-0.21-0.021-0.42-0.035-0.681
		c-0.586,0.096-1.097,0.18-1.582,0.26c0,0.366,0,0.648,0,0.933c0.204,0.023,0.363,0.041,0.577,0.065
		C1.737,100.67,1.737,102.272,1.737,103.897z M62.728,103.882c0-1.719,0-3.444,0-5.163c-0.871-0.228-0.956-0.167-0.956,0.658
		c0,1.278-0.003,2.556-0.004,3.835C61.767,104.045,61.812,104.077,62.728,103.882z M12.004,99.877c0-0.402,0.027-0.806-0.014-1.203
		c-0.015-0.143-0.195-0.27-0.3-0.404c-0.085,0.128-0.202,0.247-0.247,0.388c-0.042,0.132,0.03,0.303-0.017,0.432
		c-0.063,0.17-0.194,0.316-0.295,0.472c-0.114-0.146-0.265-0.278-0.329-0.443c-0.056-0.143,0.023-0.336-0.025-0.485
		c-0.044-0.137-0.177-0.246-0.271-0.367c-0.092,0.109-0.262,0.215-0.265,0.327c-0.023,0.839-0.024,1.679-0.001,2.518
		c0.003,0.104,0.187,0.203,0.288,0.304c0.088-0.109,0.223-0.207,0.252-0.329c0.044-0.191-0.023-0.41,0.03-0.596
		c0.039-0.135,0.198-0.235,0.303-0.35c0.106,0.111,0.268,0.207,0.305,0.338c0.053,0.186-0.014,0.404,0.026,0.596
		c0.026,0.125,0.153,0.228,0.234,0.341c0.109-0.111,0.299-0.214,0.311-0.335C12.029,100.683,12.005,100.279,12.004,99.877z
		 M10.785,106.794c-0.057,0.026-0.113,0.052-0.17,0.078c-0.204-0.358-0.395-0.724-0.619-1.069c-0.063-0.098-0.22-0.136-0.334-0.201
		c-0.054,0.104-0.152,0.207-0.155,0.312c-0.016,0.586-0.022,1.172-0.001,1.758c0.005,0.121,0.142,0.238,0.218,0.357
		c0.072-0.125,0.191-0.245,0.206-0.377c0.032-0.278,0.01-0.562,0.01-0.843c0.052-0.011,0.104-0.022,0.156-0.033
		c0.193,0.344,0.374,0.695,0.587,1.026c0.066,0.103,0.219,0.151,0.332,0.224c0.063-0.114,0.178-0.226,0.181-0.342
		c0.018-0.604,0.016-1.209-0.002-1.813c-0.003-0.091-0.128-0.179-0.197-0.268c-0.071,0.088-0.196,0.171-0.204,0.264
		C10.769,106.174,10.785,106.485,10.785,106.794z M3.572,106.829c-0.052,0.006-0.104,0.011-0.156,0.017
		c-0.202-0.346-0.394-0.698-0.613-1.033c-0.067-0.102-0.212-0.153-0.321-0.227c-0.059,0.1-0.167,0.199-0.17,0.3
		c-0.017,0.622-0.018,1.244-0.001,1.866c0.003,0.093,0.126,0.184,0.194,0.275c0.077-0.098,0.209-0.191,0.219-0.296
		c0.03-0.296,0.011-0.596,0.011-0.938c0.6,0.299,0.488,1.106,1.237,1.284c0-0.775,0.008-1.479-0.009-2.182
		c-0.003-0.106-0.126-0.209-0.194-0.313c-0.066,0.112-0.177,0.22-0.188,0.337C3.554,106.22,3.572,106.525,3.572,106.829z
		 M9.216,101.354c0-0.671,0.004-1.359-0.002-2.046c-0.002-0.259,0.017-0.465,0.355-0.495c0.085-0.008,0.224-0.196,0.212-0.283
		c-0.014-0.099-0.166-0.244-0.267-0.252c-0.398-0.029-0.802-0.03-1.2,0.001c-0.094,0.007-0.215,0.169-0.246,0.282
		c-0.017,0.062,0.123,0.241,0.196,0.244c0.394,0.012,0.359,0.278,0.359,0.537c-0.002,0.546,0.011,1.093-0.006,1.639
		C8.602,101.399,8.782,101.499,9.216,101.354z M48.339,105.498c-0.648,0.389-0.162,1.037-0.455,1.377
		c-0.516-0.296-0.412-1.097-1.16-1.299c0,0.774-0.007,1.464,0.008,2.154c0.002,0.094,0.112,0.185,0.173,0.278
		c0.069-0.089,0.192-0.174,0.199-0.268c0.025-0.319,0.01-0.641,0.01-1.002c0.585,0.321,0.504,1.148,1.225,1.306
		C48.339,107.2,48.339,106.424,48.339,105.498z M15.361,106.825c-0.054,0.02-0.108,0.04-0.162,0.061
		c-0.197-0.342-0.38-0.694-0.598-1.021c-0.077-0.115-0.24-0.173-0.363-0.257c-0.053,0.122-0.147,0.243-0.151,0.367
		c-0.017,0.566-0.019,1.133-0.002,1.699c0.004,0.118,0.111,0.233,0.17,0.349c0.08-0.117,0.215-0.227,0.23-0.352
		c0.035-0.287,0.011-0.58,0.011-0.871c0.058-0.006,0.115-0.013,0.173-0.019c0.207,0.36,0.402,0.727,0.627,1.075
		c0.055,0.085,0.204,0.138,0.313,0.144c0.043,0.003,0.136-0.162,0.137-0.252c0.01-0.621,0.011-1.243-0.008-1.864
		c-0.003-0.091-0.125-0.179-0.193-0.268c-0.061,0.098-0.166,0.192-0.174,0.293C15.346,106.213,15.361,106.52,15.361,106.825z
		 M74.632,105.932c-0.007-0.067-0.013-0.134-0.02-0.201c-0.501-0.243-0.97-0.261-1.289-0.04c-0.431,0.298-0.498,0.767-0.476,1.222
		c0.046,0.984,0.69,1.407,1.603,1.082c0.124-0.044,0.282-0.195,0.296-0.311c0.04-0.336,0.014-0.681,0.014-1.097
		c-0.309,0.055-0.528,0.094-0.61,0.109c0.071,0.377,0.12,0.634,0.169,0.891c-0.242,0.024-0.532,0.145-0.715,0.052
		c-0.483-0.244-0.404-0.736-0.334-1.168c0.062-0.381,0.33-0.543,0.718-0.523C74.2,105.956,74.416,105.937,74.632,105.932z
		 M29.623,106.862c0.001-0.061,0.001-0.122,0.002-0.183c-0.194-0.028-0.39-0.088-0.581-0.077c-0.499,0.03-0.623-0.168-0.417-0.65
		c0.253,0,0.509,0.02,0.76-0.009c0.112-0.013,0.213-0.125,0.319-0.192c-0.099-0.057-0.196-0.157-0.298-0.162
		c-0.328-0.017-0.661-0.028-0.983,0.022c-0.124,0.019-0.309,0.202-0.316,0.318c-0.034,0.582-0.026,1.168-0.013,1.752
		c0.002,0.108,0.092,0.304,0.149,0.307c0.504,0.024,1.01,0.014,1.515,0.014c0.001-0.077,0.001-0.153,0.002-0.23
		c-0.214-0.022-0.428-0.053-0.642-0.065c-0.283-0.016-0.598,0.076-0.592-0.407c0.005-0.456,0.303-0.354,0.563-0.372
		C29.268,106.916,29.445,106.885,29.623,106.862z M68.885,105.6c0,0.783-0.006,1.474,0.007,2.164
		c0.002,0.083,0.102,0.164,0.157,0.246c0.067-0.086,0.18-0.166,0.194-0.259c0.038-0.26,0.034-0.525,0.046-0.789
		c0.055-0.025,0.109-0.051,0.164-0.076c0.291,0.395,0.582,0.791,0.873,1.186c0.063-0.045,0.126-0.09,0.189-0.134
		c-0.161-0.335-0.321-0.669-0.482-1.004c0.061,0.002,0.122,0.004,0.183,0.006c0.044-0.32,0.219-0.698,0.107-0.948
		C70.053,105.387,69.455,105.657,68.885,105.6z M63.658,108.073c0.049-0.051,0.098-0.103,0.147-0.154
		c-0.198-0.275-0.383-0.562-0.598-0.823c-0.29-0.351-0.27-0.641,0.094-0.924c0.173-0.135,0.316-0.309,0.473-0.465
		c-0.053-0.063-0.105-0.125-0.158-0.188c-0.437,0.351-0.873,0.703-1.409,1.133c0-0.319,0.024-0.519-0.009-0.709
		c-0.02-0.113-0.131-0.21-0.2-0.315c-0.059,0.099-0.165,0.196-0.168,0.296c-0.018,0.585-0.022,1.172-0.004,1.757
		c0.003,0.111,0.126,0.218,0.193,0.327c0.064-0.111,0.142-0.216,0.188-0.334c0.093-0.24,0.169-0.488,0.252-0.732
		c0.06,0.007,0.12,0.013,0.18,0.02c0.162,0.218,0.308,0.449,0.49,0.649C63.283,107.785,63.479,107.921,63.658,108.073z
		 M56.926,105.941c0-0.059,0.001-0.119,0.001-0.178c-0.708-0.39-1.438-0.271-1.61,0.333c-0.119,0.417-0.13,0.899-0.054,1.328
		c0.096,0.538,0.575,0.703,1.213,0.645c0.602-0.054,0.64-0.408,0.595-0.864c-0.017-0.177-0.02-0.355-0.034-0.604
		c-0.275,0.043-0.496,0.077-0.84,0.13c0.172,0.144,0.246,0.178,0.271,0.233c0.08,0.181,0.186,0.369,0.186,0.555
		c0,0.063-0.283,0.175-0.439,0.18c-0.457,0.014-0.678-0.285-0.677-0.858c0.001-0.622,0.213-0.893,0.706-0.899
		C56.472,105.939,56.699,105.941,56.926,105.941z M33.85,106.842c0.001-0.932-0.619-1.501-1.347-1.239
		c-0.553,0.199-0.63,0.685-0.636,1.161c-0.006,0.487,0.007,1.006,0.587,1.239C33.187,108.298,33.849,107.751,33.85,106.842z
		 M79.42,105.595c0,0.769-0.006,1.476,0.008,2.182c0.002,0.079,0.112,0.156,0.173,0.233c0.069-0.085,0.185-0.164,0.199-0.258
		c0.042-0.268,0.043-0.543,0.06-0.815c0.067-0.018,0.135-0.036,0.202-0.053c0.131,0.219,0.249,0.446,0.396,0.654
		c0.129,0.182,0.29,0.343,0.436,0.512c0.046-0.04,0.091-0.079,0.137-0.119c-0.145-0.328-0.29-0.656-0.436-0.984
		c0.06,0.002,0.119,0.003,0.179,0.005c0.026-0.343,0.184-0.751,0.052-1.015C80.549,105.376,79.97,105.663,79.42,105.595z
		 M17.861,106.102c0.023-0.057,0.045-0.113,0.068-0.17c-0.292-0.39-0.722-0.508-1.161-0.322c-0.239,0.101-0.488,0.399-0.538,0.647
		c-0.033,0.163,0.259,0.422,0.45,0.587c0.111,0.097,0.329,0.061,0.462,0.144c0.178,0.11,0.322,0.277,0.48,0.42
		c-0.227,0.102-0.449,0.269-0.682,0.287c-0.227,0.018-0.467-0.117-0.747-0.198c0.007,0.138-0.016,0.227,0.019,0.266
		c0.346,0.397,1.308,0.412,1.658,0.034c0.303-0.328,0.207-0.882-0.201-1.064c-0.198-0.089-0.434-0.095-0.626-0.193
		c-0.152-0.078-0.263-0.238-0.392-0.362c0.184-0.088,0.366-0.24,0.554-0.248C17.42,105.921,17.642,106.039,17.861,106.102z
		 M53.78,105.554c-0.575,0.007-0.928,0.482-0.925,1.247c0.002,0.828,0.327,1.26,0.954,1.268c0.607,0.008,1.024-0.5,1.015-1.238
		C54.815,106.049,54.404,105.547,53.78,105.554z M7.27,107.952c0.048,0.041,0.096,0.083,0.145,0.124
		c0.105-0.091,0.23-0.166,0.31-0.275c0.32-0.433,0.712-0.427,1.026,0.003c0.084,0.116,0.254,0.171,0.384,0.253
		c0.031-0.044,0.062-0.087,0.093-0.131c-0.297-0.782-0.593-1.565-0.89-2.347c-0.068,0.003-0.135,0.006-0.203,0.009
		C7.847,106.376,7.558,107.164,7.27,107.952z M41.718,108.012c0.004-0.089,0.007-0.178,0.011-0.267
		c-0.273-0.013-0.546-0.037-0.82-0.037c-0.275,0-0.446-0.061-0.452-0.393c-0.007-0.335,0.156-0.397,0.438-0.393
		c0.236,0.004,0.472-0.032,0.708-0.051c0.003-0.071,0.007-0.142,0.01-0.213c-0.247-0.02-0.503-0.009-0.738-0.072
		c-0.152-0.041-0.274-0.192-0.409-0.294c0.14-0.116,0.265-0.29,0.425-0.335c0.247-0.069,0.518-0.051,0.78-0.069
		c-0.003-0.086-0.006-0.171-0.009-0.257c-0.488,0-0.977-0.009-1.464,0.014c-0.051,0.002-0.129,0.2-0.132,0.307
		c-0.011,0.565-0.01,1.131,0.01,1.696c0.004,0.123,0.097,0.343,0.158,0.347C40.727,108.025,41.223,108.012,41.718,108.012z
		 M4.545,105.611c0,0.845,0,1.619,0,2.415c0.529-0.01,1.055,0.159,1.402-0.347c0.307-0.448,0.278-1.336-0.054-1.777
		C5.541,105.432,5.047,105.6,4.545,105.611z M23.518,106.482c0.006,0,0.012,0,0.019,0c0,0.237-0.021,0.477,0.004,0.711
		c0.057,0.524,0.369,0.839,0.887,0.882c0.494,0.041,0.878-0.197,0.964-0.698c0.086-0.499,0.082-1.014,0.097-1.522
		c0.002-0.078-0.109-0.16-0.168-0.24c-0.07,0.086-0.194,0.168-0.2,0.258c-0.027,0.363-0.004,0.73-0.026,1.094
		c-0.023,0.392-0.162,0.772-0.614,0.76c-0.459-0.012-0.551-0.411-0.568-0.798c-0.015-0.346-0.002-0.694-0.029-1.039
		c-0.008-0.098-0.115-0.188-0.176-0.282c-0.063,0.09-0.166,0.174-0.18,0.272C23.498,106.078,23.518,106.282,23.518,106.482z
		 M50.675,106.907c0.025-0.603-0.202-1.094-0.582-1.264c-0.782-0.35-1.475,0.297-1.392,1.3c0.061,0.735,0.425,1.146,1.005,1.135
		C50.285,108.067,50.645,107.632,50.675,106.907z M45.888,105.552c-0.024,0.226-0.066,0.37-0.048,0.507
		c0.062,0.466-0.184,0.533-0.58,0.555c-0.495,0.026-0.666-0.155-0.619-0.632c0.011-0.114-0.099-0.239-0.153-0.359
		c-0.076,0.06-0.215,0.118-0.217,0.18c-0.016,0.677-0.014,1.354-0.002,2.031c0.001,0.06,0.138,0.177,0.165,0.165
		c0.082-0.037,0.171-0.114,0.201-0.196c0.036-0.098,0.027-0.219,0.013-0.326c-0.063-0.495,0.206-0.561,0.623-0.561
		c0.411,0,0.627,0.092,0.571,0.55c-0.022,0.178,0.03,0.365,0.054,0.613C46.276,107.701,46.276,105.917,45.888,105.552z
		 M72.648,108.025c0.036-0.032,0.071-0.064,0.107-0.096c-0.299-0.779-0.599-1.559-0.898-2.338c-0.058,0.006-0.115,0.012-0.173,0.019
		c-0.284,0.786-0.568,1.571-0.899,2.489c0.435-0.266,0.727-0.582,1.019-0.582C72.085,107.516,72.367,107.842,72.648,108.025z
		 M68.531,107.978c-0.314-0.833-0.607-1.608-0.899-2.384c-0.06,0.006-0.12,0.012-0.18,0.018c-0.284,0.781-0.568,1.563-0.866,2.382
		C66.704,107.993,68.422,107.979,68.531,107.978z M78.624,106.456c-0.001,0-0.003,0-0.004,0c0,0.146,0.01,0.293-0.002,0.439
		c-0.033,0.4-0.119,0.832-0.599,0.841c-0.486,0.009-0.593-0.41-0.61-0.821c-0.013-0.329,0.005-0.659-0.018-0.987
		c-0.007-0.105-0.1-0.203-0.154-0.305c-0.074,0.084-0.214,0.171-0.211,0.252c0.018,0.527,0.028,1.059,0.119,1.576
		c0.077,0.432,0.444,0.635,0.857,0.627c0.43-0.009,0.821-0.217,0.899-0.667c0.089-0.517,0.076-1.052,0.086-1.58
		c0.001-0.07-0.123-0.142-0.188-0.214c-0.059,0.078-0.157,0.152-0.168,0.236C78.607,106.051,78.624,106.255,78.624,106.456z
		 M65.954,108.113c0.336-0.475,0.314-2.173,0.025-2.503c-0.37,0.236,0.167,1.014-0.714,1.031c-0.896,0.018-0.481-0.726-0.759-1.059
		c-0.345,0.483-0.302,2.211,0.063,2.447c0.052-0.349-0.009-0.794,0.181-0.977c0.193-0.185,0.635-0.112,1.019-0.157
		c0.021,0.264,0.026,0.443,0.053,0.619C65.848,107.688,65.897,107.859,65.954,108.113z M75.066,106.787c0.008,0,0.016,0,0.024,0
		c0,0.345-0.008,0.691,0.007,1.035c0.003,0.066,0.098,0.127,0.15,0.191c0.074-0.062,0.187-0.11,0.214-0.188
		c0.039-0.115,0.029-0.252,0.02-0.378c-0.026-0.343,0.052-0.545,0.469-0.534c0.413,0.01,0.706-0.202,0.684-0.664
		c-0.021-0.444-0.3-0.623-0.724-0.646c-0.814-0.046-0.813-0.052-0.824,0.748C75.083,106.496,75.073,106.641,75.066,106.787z
		 M43.919,105.872c-0.51-0.413-1.139-0.422-1.461-0.094c-0.427,0.435-0.461,1.52-0.062,1.998c0.313,0.376,0.927,0.4,1.516-0.021
		c-0.671-0.059-1.405,0.133-1.451-0.848C42.41,105.838,43.219,105.974,43.919,105.872z M34.21,105.648c0,0.803,0,1.581,0,2.359
		c0.065,0.01,0.129,0.02,0.194,0.029c0.033-0.186,0.107-0.375,0.092-0.557c-0.035-0.438,0.136-0.6,0.571-0.557
		c0.2,0.02,0.409-0.044,0.613-0.07c-0.003-0.069-0.007-0.138-0.01-0.207c-0.276-0.019-0.56-0.004-0.823-0.072
		c-0.13-0.034-0.221-0.22-0.33-0.337c0.109-0.094,0.206-0.243,0.33-0.271c0.21-0.048,0.439-0.002,0.656-0.03
		c0.089-0.012,0.167-0.113,0.25-0.174c-0.015-0.038-0.029-0.075-0.044-0.113C35.229,105.648,34.748,105.648,34.21,105.648z
		 M20.264,105.579c-0.672,0-1.238-0.005-1.804,0.008c-0.059,0.001-0.116,0.11-0.174,0.17c0.072,0.063,0.152,0.189,0.214,0.181
		c0.597-0.079,0.529,0.323,0.526,0.692c-0.005,0.46-0.001,0.921-0.001,1.381c0.067,0.019,0.135,0.037,0.202,0.056
		c0.073-0.126,0.191-0.247,0.21-0.381c0.035-0.251,0.021-0.51,0.01-0.765c-0.022-0.509-0.102-1.046,0.666-1.054
		C20.13,105.866,20.146,105.807,20.264,105.579z M37.885,105.677c-0.007,0.038-0.014,0.077-0.021,0.115
		c0.083,0.048,0.17,0.145,0.247,0.137c0.44-0.045,0.53,0.186,0.508,0.561c-0.021,0.346-0.03,0.697,0.001,1.041
		c0.015,0.165,0.134,0.321,0.206,0.481c0.063-0.168,0.163-0.331,0.182-0.504c0.031-0.289,0.029-0.586,0.007-0.877
		c-0.034-0.436,0.016-0.772,0.583-0.712c0.079,0.008,0.166-0.05,0.249-0.078c-0.038-0.055-0.076-0.111-0.114-0.166
		C39.115,105.677,38.5,105.677,37.885,105.677z M23.246,105.843c-0.026-0.08-0.053-0.16-0.079-0.24
		c-0.569,0-1.139-0.005-1.708,0.008c-0.051,0.001-0.1,0.117-0.15,0.18c0.083,0.053,0.173,0.159,0.248,0.15
		c0.514-0.064,0.513,0.261,0.498,0.616c-0.014,0.329-0.034,0.659-0.018,0.987c0.008,0.17,0.09,0.336,0.138,0.503
		c0.084-0.006,0.168-0.013,0.252-0.019c0-0.418,0.012-0.836-0.003-1.253c-0.016-0.456-0.058-0.909,0.624-0.847
		C23.111,105.933,23.18,105.873,23.246,105.843z M58.435,106.396c-0.375-0.152-0.371-0.826-1.059-0.766
		c0.327,0.447,0.662,0.768,0.818,1.16c0.148,0.372,0.11,0.818,0.153,1.232c0.094,0.011,0.189,0.023,0.283,0.034
		c-0.238-0.997,0.281-1.689,0.917-2.415C58.847,105.554,58.853,106.211,58.435,106.396z M27.876,105.836
		c-0.029-0.078-0.057-0.157-0.086-0.235c-0.566,0-1.131-0.005-1.696,0.008c-0.051,0.001-0.148,0.124-0.138,0.175
		c0.011,0.062,0.117,0.16,0.173,0.154c0.623-0.065,0.551,0.359,0.546,0.747c-0.005,0.442-0.001,0.883-0.001,1.325
		c0.072,0.013,0.144,0.025,0.217,0.038c0.054-0.139,0.143-0.275,0.155-0.417c0.024-0.309,0.018-0.622,0.007-0.932
		c-0.015-0.42-0.056-0.843,0.584-0.769C27.711,105.938,27.795,105.869,27.876,105.836z M52.587,107.946
		c0.004-0.038,0.008-0.075,0.012-0.113c-0.071-0.04-0.138-0.106-0.213-0.117c-0.913-0.135-0.913-0.133-0.911-1.089
		c0-0.091,0.006-0.183,0-0.274c-0.018-0.248-0.041-0.495-0.063-0.743c-0.07,0.004-0.141,0.007-0.211,0.01
		c-0.172,0.776-0.07,1.562-0.061,2.325C51.665,107.946,52.126,107.946,52.587,107.946z M20.47,106.781c0.002,0,0.005,0,0.007,0
		c0,0.33-0.015,0.66,0.01,0.988c0.007,0.089,0.137,0.169,0.211,0.253c0.064-0.071,0.183-0.142,0.184-0.214
		c0.014-0.659,0.014-1.318-0.001-1.977c-0.002-0.075-0.118-0.148-0.182-0.222c-0.077,0.08-0.212,0.154-0.219,0.24
		C20.454,106.158,20.47,106.47,20.47,106.781z M13.182,106.82c0,0.309-0.015,0.62,0.009,0.928c0.008,0.096,0.122,0.183,0.187,0.274
		c0.073-0.085,0.208-0.168,0.21-0.254c0.016-0.637,0.013-1.274-0.007-1.91c-0.003-0.086-0.139-0.167-0.213-0.251
		c-0.062,0.095-0.17,0.187-0.177,0.287C13.167,106.2,13.181,106.511,13.182,106.82z M1.586,108.08
		c0.043-0.024,0.087-0.048,0.13-0.073c0-0.798,0-1.596,0-2.394c-0.067-0.006-0.133-0.013-0.2-0.019
		c-0.322,0.659-0.084,1.4-0.141,2.096C1.365,107.813,1.511,107.949,1.586,108.08z M6.615,105.543
		c-0.05,0.021-0.101,0.042-0.151,0.062c0,0.724-0.007,1.448,0.009,2.172c0.002,0.086,0.128,0.169,0.196,0.254
		c0.063-0.092,0.178-0.182,0.18-0.275c0.018-0.64,0.023-1.28,0.003-1.92C6.85,105.737,6.698,105.641,6.615,105.543z"/>
	<path class="acell" fill="#FFFFFF" stroke="#272BA9" stroke-width="0.5" d="M27.236,90.435c-1.044,0-2.089-0.019-3.132,0.009
		c-0.459,0.012-0.593-0.142-0.588-0.597c0.028-2.75,0.223-5.486,0.692-8.196c0.228-1.314,0.42-2.648,0.816-3.915
		c0.69-2.204,2.319-3.477,4.499-4.118c1.85-0.544,3.718-0.775,5.64-0.502c1.536,0.219,3.009,0.649,4.352,1.421
		c2.024,1.164,4.074,2.244,6.415,2.623c3.764,0.608,7.334,0.078,10.642-1.871c0.453-0.267,0.635-0.173,0.898,0.227
		c1.598,2.428,2.625,5.066,2.926,7.959c0.319,3.072-0.036,6.062-1.27,8.92c-0.149,0.346-0.333,0.483-0.752,0.429
		c-2.378-0.304-4.759-0.58-7.143-0.841c-1.709-0.187-3.422-0.348-5.135-0.495c-2.152-0.186-4.303-0.385-6.459-0.508
		c-3.253-0.186-6.51-0.319-9.766-0.455c-0.877-0.037-1.758-0.006-2.637-0.006C27.236,90.492,27.236,90.463,27.236,90.435z"/>
	<path class="acell" fill="#FFFFFF" stroke="#272BA9" stroke-width="0.5" d="M65.578,94.952c-1.066,0-2.118,0.02-3.168-0.005
		c-1.428-0.034-2.854-0.117-4.282-0.151c-5.346-0.128-10.691-0.265-16.038-0.356c-3.424-0.058-6.85-0.119-10.273-0.039
		c-4.593,0.108-9.183,0.34-13.774,0.542c-1.48,0.065-2.958,0.195-4.435,0.317c-0.486,0.04-0.655-0.116-0.607-0.612
		c0.332-3.386,0.59-6.781,0.988-10.16c0.273-2.322,0.674-4.634,1.122-6.931c0.644-3.3,1.781-6.431,3.388-9.397
		c1.271-2.346,2.787-4.512,4.565-6.488c1.879-2.089,3.995-3.918,6.358-5.45c1.713-1.111,3.17-2.467,4.21-4.251
		c1.272-2.182,1.707-4.528,1.483-7.021c-0.124-1.377-0.532-2.648-1.371-3.764c-0.049-0.065-0.072-0.15-0.142-0.301
		c4.029,3.312,6.164,6.803,4.939,12.135c-0.548,2.384-2.065,4.198-3.849,5.81c-2.703,2.442-5.027,5.2-6.959,8.298
		c-1.431,2.295-2.618,4.708-3.499,7.247c-1.511,4.353-2.321,8.843-2.162,13.475c0.035,1.024,0.119,2.047,0.138,3.072
		c0.01,0.527,0.262,0.633,0.724,0.639c1.886,0.026,3.773,0.032,5.655,0.135c3.473,0.189,6.943,0.427,10.412,0.674
		c2.062,0.146,4.121,0.341,6.18,0.527c3.918,0.354,7.837,0.701,11.753,1.083c2.84,0.277,5.676,0.606,8.513,0.914
		C65.49,94.898,65.531,94.93,65.578,94.952z"/>
	<path class="acell" fill="#FFFFFF" stroke="#272BA9" stroke-width="0.5" d="M45.747,55.354c0.264-1.403,0.699-2.749,1.337-4.034
		c1.144-2.304,2.867-4.123,4.723-5.863c1.966-1.843,3.32-4.119,4.279-6.632c0.794-2.082,1.232-4.248,1.459-6.455
		c0.162-1.582,0.389-3.174,0.348-4.756c-0.053-2.042-0.272-4.088-0.555-6.114c-0.204-1.461-0.618-2.893-0.96-4.333
		c-0.1-0.42-0.034-0.576,0.443-0.687c2.546-0.593,5.085-1.221,7.483-2.297c1.967-0.883,3.981-1.679,5.88-2.691
		c1.361-0.725,2.568-1.741,3.843-2.628c0.059-0.041,0.116-0.084,0.272-0.197c0,0.78,0.067,1.486-0.013,2.175
		c-0.247,2.126-0.455,4.263-0.856,6.362c-0.487,2.548-1.098,5.076-1.759,7.586c-0.732,2.779-1.77,5.457-2.912,8.097
		c-1.156,2.672-2.63,5.151-4.476,7.391c-1.306,1.585-2.895,2.884-4.519,4.145c-2.113,1.639-4.536,2.741-6.816,4.089
		c-2.233,1.32-4.117,3.037-5.723,5.063c-0.473,0.596-0.903,1.226-1.353,1.84C45.829,55.393,45.788,55.374,45.747,55.354z"/>
	<path class="acell" fill="#FFFFFF" stroke="#272BA9" stroke-width="0.5" d="M54.812,26.045c0.191,3.276-0.521,6.372-1.659,9.366
		c-1.177,3.094-3.24,5.505-6.105,7.177c-1.858,1.084-1.331,1.119-3.223,0.006c-3.327-1.956-5.609-4.812-6.83-8.48
		c-0.923-2.772-1.001-5.604-0.385-8.447c0.487-2.246,1.022-4.483,1.572-6.714c0.179-0.724,0.475-1.419,0.717-2.127
		c0.1-0.294,0.246-0.342,0.577-0.266c0.959,0.222,1.931,0.415,2.908,0.529c1.593,0.187,3.194,0.407,4.793,0.424
		c1.879,0.019,3.761-0.148,5.639-0.275c0.396-0.027,0.593,0.025,0.723,0.429C54.42,20.404,54.989,23.185,54.812,26.045z"/>
	<path class="acell" fill="#FFFFFF" stroke="#272BA9" stroke-width="0.5" d="M21.243,8.231c0.769,0.53,1.505,1.031,2.233,1.541
		c2.497,1.748,5.138,3.227,7.995,4.305c1.298,0.49,2.601,0.965,3.906,1.435c0.372,0.134,0.526,0.312,0.383,0.734
		c-0.543,1.609-1.109,3.213-1.572,4.845c-0.577,2.033-1.065,4.091-1.585,6.14c-0.829,3.267-1.351,6.589-1.798,9.925
		c-0.014,0.105-0.053,0.207-0.09,0.349c-0.088-0.039-0.169-0.049-0.205-0.095c-1.552-2.012-3.135-4.001-4.632-6.053
		c-0.73-1-1.343-2.095-1.934-3.187c-1.031-1.903-1.834-3.904-2.391-6.002c-0.737-2.775-1.197-5.594-1.054-8.466
		c0.087-1.748,0.389-3.485,0.598-5.226C21.103,8.427,21.15,8.384,21.243,8.231z"/>
	<path class="acell" fill="#FFFFFF" stroke="#272BA9" stroke-width="0.5" d="M50.221,64.55c0.622,0.429,1.278,0.817,1.86,1.294
		c1.411,1.158,2.846,2.296,4.165,3.553c2.741,2.613,5.031,5.586,6.924,8.877c1.402,2.436,2.567,4.968,3.449,7.631
		c0.695,2.1,1.302,4.226,1.576,6.431c0.049,0.398,0.133,0.793,0.216,1.186c0.073,0.345-0.032,0.477-0.398,0.423
		c-1.701-0.251-3.404-0.495-5.107-0.731c-0.773-0.107-1.55-0.188-2.379-0.287c0.155-0.68,0.294-1.296,0.436-1.91
		c0.532-2.301,0.664-4.618,0.429-6.974c-0.318-3.182-1.257-6.158-2.844-8.917c-1.547-2.688-3.427-5.145-5.499-7.449
		c-0.83-0.923-1.72-1.792-2.58-2.687c-0.11-0.114-0.21-0.238-0.314-0.357C50.175,64.607,50.198,64.578,50.221,64.55z"/>
	<path class="acell" fill="#FFFFFF" stroke="#272BA9" stroke-width="0.5" d="M65.943,7.53c-0.03,2.364-1.916,4.148-4.35,4.117
		c-2.03-0.026-4.194-1.817-4.096-4.401c0.082-2.143,2.032-4.084,4.407-3.958C64.09,3.405,65.959,5.198,65.943,7.53z"/>
	<path class="acell" fill="#FFFFFF" stroke="#272BA9" stroke-width="0.5" d="M47.266,6.663c2.04-0.06,4.239,1.75,4.189,4.305
		c-0.04,2.058-1.913,3.965-3.962,4.028c-2.564,0.079-4.383-1.896-4.461-3.969C42.931,8.394,45.206,6.589,47.266,6.663z"/>
	<path class="acell" fill="#FFFFFF" stroke="#272BA9" stroke-width="0.5" d="M37.725,7.474c0.041,2.222-1.786,4.097-4.008,4.172
		c-2.402,0.08-4.267-1.769-4.372-3.926c-0.119-2.441,1.876-4.331,4.093-4.393C35.745,3.261,37.805,5.099,37.725,7.474z"/>
	<path class="acell" fill="#FFFFFF" stroke="#272BA9" stroke-width="0.5" d="M66.513,100.637c0,0.928-0.015,1.857,0.007,2.785
		c0.009,0.391-0.09,0.554-0.517,0.555c-0.436,0-0.459-0.219-0.457-0.55c0.01-1.684,0.006-3.367,0.01-5.051
		c0.001-0.247-0.063-0.577,0.344-0.531c0.361,0.04,0.859-0.263,0.994,0.424c0.215,1.09,0.493,2.168,0.879,3.275
		c0.102-0.426,0.207-0.852,0.305-1.279c0.159-0.695,0.309-1.391,0.471-2.085c0.138-0.589,0.616-0.29,0.95-0.339
		c0.354-0.051,0.356,0.227,0.357,0.473c0.008,1.738,0.008,3.477,0.026,5.215c0.003,0.342-0.137,0.446-0.459,0.442
		c-0.307-0.004-0.534-0.021-0.526-0.427c0.016-0.768-0.001-1.537-0.008-2.305c-0.001-0.175-0.016-0.35-0.147-0.544
		c-0.081,0.359-0.162,0.717-0.242,1.076c-0.131,0.589-0.24,1.185-0.402,1.765c-0.046,0.164-0.242,0.286-0.369,0.427
		c-0.138-0.132-0.358-0.242-0.4-0.399c-0.189-0.706-0.326-1.425-0.483-2.139c-0.058-0.265-0.121-0.53-0.182-0.794
		C66.615,100.632,66.564,100.634,66.513,100.637z"/>
	<path class="acell" fill="#FFFFFF" stroke="#272BA9" stroke-width="0.5" d="M54.744,101.832c0.223-0.879,0.445-1.758,0.671-2.636
		c0.131-0.509,0.764-0.795,1.212-0.527c0.093,0.056,0.154,0.239,0.155,0.365c0.015,1.5,0.02,3.001,0.018,4.501
		c-0.001,0.718-0.547,0.293-0.93,0.509c0-1.086,0-2.052,0-3.019c-0.054-0.006-0.109-0.012-0.163-0.019
		c-0.154,0.645-0.308,1.29-0.463,1.935c-0.051,0.213-0.069,0.447-0.171,0.632c-0.088,0.158-0.278,0.362-0.419,0.359
		c-0.149-0.003-0.382-0.202-0.426-0.358c-0.211-0.737-0.37-1.489-0.55-2.235c-0.024-0.099-0.062-0.194-0.228-0.28
		c0,0.807-0.01,1.614,0.005,2.42c0.006,0.342-0.095,0.492-0.467,0.493c-0.381,0-0.512-0.13-0.507-0.512
		c0.018-1.445,0.01-2.891,0.012-4.336c0-0.239-0.032-0.537,0.331-0.488c0.353,0.048,0.855-0.261,1.015,0.339
		c0.202,0.76,0.382,1.525,0.574,2.288c0.048,0.189,0.106,0.376,0.16,0.563C54.628,101.829,54.686,101.83,54.744,101.832z"/>
	<path class="acell" fill="#FFFFFF" stroke="#272BA9" stroke-width="0.5" d="M20.056,103.936c-0.383,0-0.648,0-0.986,0
		c0-0.357-0.001-0.682,0-1.007c0.004-1.264,0-2.528,0.025-3.791c0.004-0.176,0.186-0.507,0.236-0.498
		c0.237,0.043,0.564,0.119,0.664,0.294c0.443,0.776,0.818,1.591,1.337,2.392c0.01-0.197,0.028-0.394,0.03-0.592
		c0.004-0.531,0.015-1.063-0.004-1.593c-0.012-0.345,0.04-0.55,0.466-0.542c0.417,0.008,0.469,0.21,0.467,0.554
		c-0.009,1.428,0.002,2.857,0.002,4.286c0,0.16-0.022,0.319-0.032,0.459c-0.506,0.188-0.798,0.033-0.999-0.413
		c-0.335-0.745-0.704-1.475-1.058-2.211c-0.049,0.009-0.099,0.018-0.148,0.027C20.056,102.157,20.056,103.013,20.056,103.936z"/>
	<path class="acell" fill="#FFFFFF" stroke="#272BA9" stroke-width="0.5" d="M26.353,103.908c-0.594,0.191-0.86-0.049-1.063-0.531
		c-0.308-0.733-0.684-1.436-1.032-2.152c-0.053,0.011-0.107,0.023-0.16,0.034c0,0.719-0.005,1.437,0.002,2.156
		c0.003,0.308,0.033,0.571-0.43,0.568c-0.416-0.003-0.535-0.143-0.529-0.544c0.021-1.427,0.002-2.855,0.028-4.283
		c0.003-0.183,0.142-0.461,0.29-0.522c0.253-0.105,0.5-0.031,0.651,0.304c0.364,0.808,0.782,1.592,1.179,2.386
		c0.052-0.009,0.103-0.017,0.155-0.026c0-0.664,0-1.327,0-1.991c0.001-0.752,0.102-0.821,0.91-0.595
		C26.353,100.436,26.353,102.167,26.353,103.908z"/>
	<path class="acell" fill="#FFFFFF" stroke="#272BA9" stroke-width="0.5" d="M14.463,103.906c0.191-0.904,0.374-1.776,0.559-2.649
		c0.208-0.984,0.436-1.964,0.617-2.953c0.079-0.434,0.319-0.513,0.692-0.487c0.352,0.025,0.707-0.088,0.814,0.467
		c0.358,1.863,0.77,3.716,1.16,5.569c-0.796,0.273-1.004,0.202-1.096-0.553c-0.097-0.789-0.65-0.492-1.066-0.554
		c-0.473-0.07-0.521,0.224-0.565,0.59C15.495,104.028,15.438,104.047,14.463,103.906z M16.913,101.835
		c-0.154-0.815-0.295-1.558-0.435-2.3c-0.063,0.003-0.126,0.006-0.189,0.009c-0.115,0.597-0.217,1.197-0.349,1.79
		c-0.089,0.401,0.014,0.598,0.451,0.543C16.532,101.86,16.674,101.854,16.913,101.835z"/>
	<path class="acell" fill="#FFFFFF" stroke="#272BA9" stroke-width="0.5" d="M40.677,103.883c0.182-0.854,0.363-1.708,0.546-2.562
		c0.215-1,0.458-1.995,0.635-3.002c0.086-0.486,0.365-0.5,0.742-0.492c0.361,0.008,0.64-0.019,0.737,0.485
		c0.34,1.777,0.742,3.543,1.118,5.313c0.018,0.084,0.014,0.172,0.02,0.255c-0.857,0.192-0.941,0.176-1.072-0.646
		c-0.127-0.801-0.705-0.419-1.103-0.494c-0.398-0.075-0.479,0.192-0.52,0.524C41.683,104.035,41.597,104.078,40.677,103.883z
		 M43.123,101.811c-0.164-0.835-0.311-1.584-0.458-2.332c-0.054,0.002-0.107,0.005-0.161,0.007
		c-0.131,0.756-0.262,1.513-0.402,2.325C42.46,101.811,42.739,101.811,43.123,101.811z"/>
	<path class="acell" fill="#FFFFFF" stroke="#272BA9" stroke-width="0.5" d="M58.64,101.224c0,0.669,0,1.337,0,2.006
		c0,0.796-0.029,0.818-0.884,0.661c-0.009-0.096-0.027-0.202-0.027-0.307c-0.002-1.626-0.001-3.252-0.001-4.885
		c0.488-0.16,0.793-0.074,1.002,0.396c0.34,0.764,0.73,1.506,1.222,2.247c0.023-0.123,0.064-0.247,0.065-0.37
		c0.007-0.622,0.011-1.245,0.001-1.867c-0.005-0.296,0.041-0.493,0.409-0.487c0.33,0.005,0.501,0.082,0.497,0.462
		c-0.015,1.464,0.004,2.929-0.012,4.393c-0.002,0.161-0.11,0.42-0.227,0.459c-0.254,0.084-0.525,0.065-0.679-0.269
		c-0.335-0.731-0.704-1.447-1.059-2.168c-0.047-0.095-0.1-0.188-0.151-0.282C58.744,101.217,58.692,101.221,58.64,101.224z"/>
	<path class="acell" fill="#FFFFFF" stroke="#272BA9" stroke-width="0.5" d="M30.252,101.034c0,0.659-0.002,1.318,0.001,1.976
		c0.002,0.466-0.221,0.823-0.663,0.881c-0.553,0.073-1.13,0.072-1.684,0.003c-0.472-0.059-0.708-0.441-0.71-0.913
		c-0.007-1.317,0.012-2.635,0.003-3.953c-0.003-0.368,0.196-0.418,0.487-0.416c0.297,0.002,0.544,0.013,0.54,0.424
		c-0.011,1.116,0.003,2.232,0.001,3.349c-0.001,0.335,0.007,0.608,0.476,0.619c0.462,0.01,0.617-0.173,0.614-0.611
		c-0.007-1.079,0.017-2.159,0.013-3.239c-0.001-0.34,0.05-0.546,0.47-0.547c0.438-0.001,0.458,0.236,0.452,0.56
		c-0.01,0.622-0.003,1.244-0.003,1.866C30.25,101.034,30.251,101.034,30.252,101.034z"/>
	<path class="acell" fill="#FFFFFF" stroke="#272BA9" stroke-width="0.5" d="M48.603,98.739c0.872-0.263,0.993-0.18,0.995,0.634
		c0.001,0.97,0.003,1.939,0.001,2.909c-0.001,0.382-0.021,0.725,0.546,0.732c0.556,0.006,0.566-0.303,0.563-0.705
		c-0.01-1.188-0.003-2.376-0.003-3.549c0.797-0.294,0.947-0.196,0.949,0.583c0.004,1.116,0.008,2.232,0.006,3.348
		c-0.001,0.966-0.308,1.265-1.29,1.271c-1.607,0.01-1.769-0.149-1.768-1.734C48.604,101.059,48.603,99.891,48.603,98.739z"/>
	<path class="acell" fill="#FFFFFF" stroke="#272BA9" stroke-width="0.5" d="M34.637,103.904c-0.871,0.126-0.889,0.131-1.064-0.56
		c-0.078-0.307-0.214-0.434-0.526-0.41c-0.236,0.018-0.487-0.041-0.708,0.018c-0.168,0.045-0.379,0.195-0.435,0.348
		c-0.264,0.725-0.247,0.731-1.113,0.602c0.208-0.864,0.409-1.723,0.623-2.578c0.186-0.743,0.414-1.477,0.569-2.226
		c0.074-0.358,0.213-0.524,0.574-0.485c0.348,0.037,0.774-0.166,0.906,0.423c0.288,1.282,0.624,2.552,0.937,3.828
		C34.481,103.196,34.552,103.533,34.637,103.904z M32.793,100.223c-0.052,0.002-0.105,0.003-0.157,0.005
		c-0.135,0.573-0.27,1.145-0.411,1.741c0.373,0,0.651,0,0.989,0C33.064,101.347,32.929,100.785,32.793,100.223z"/>
	<path class="acell" fill="#FFFFFF" stroke="#272BA9" stroke-width="0.5" d="M75.632,101.752c-0.036,0.127-0.067,0.194-0.074,0.263
		c-0.093,0.972-0.084,0.981,0.88,0.981c0.346,0,0.692,0,1.1,0c0.016,0.312,0.03,0.592,0.05,0.962c-0.973,0-1.896,0.009-2.818-0.016
		c-0.085-0.002-0.235-0.222-0.236-0.341c-0.014-1.536-0.003-3.072-0.007-4.608c-0.001-0.339,0.203-0.379,0.467-0.378
		c0.603,0.003,1.207-0.002,1.81-0.004c0.836-0.002,0.862,0.03,0.697,0.949c-0.489,0-0.995,0.022-1.498-0.006
		c-0.545-0.03-0.444,0.34-0.46,0.659c-0.017,0.344,0.006,0.64,0.477,0.58c0.108-0.014,0.219-0.002,0.329-0.002
		c0.817,0.001,0.839,0.031,0.665,0.959C76.563,101.752,76.097,101.752,75.632,101.752z"/>
	<path class="acell" fill="#FFFFFF" stroke="#272BA9" stroke-width="0.5" d="M73.611,103.93c-0.935,0-1.879,0-2.857,0
		c-0.021-0.122-0.061-0.242-0.061-0.362c-0.002-1.483,0.013-2.965-0.003-4.448c-0.004-0.381,0.11-0.525,0.496-0.509
		c0.585,0.023,1.171,0.004,1.757,0.005c0.807,0.001,0.809,0.005,0.68,0.943c-0.471,0-0.96,0.03-1.444-0.008
		c-0.506-0.041-0.515,0.247-0.505,0.611c0.01,0.337-0.05,0.697,0.479,0.633c0.108-0.013,0.219-0.002,0.329-0.001
		c0.829,0.003,0.867,0.049,0.704,0.956c-0.468,0-0.951,0-1.394,0c-0.057,0.103-0.087,0.133-0.089,0.165
		c-0.089,1.08-0.088,1.08,0.978,1.083c0.092,0,0.183,0,0.275,0C73.776,102.999,73.799,103.029,73.611,103.93z"/>
	<path class="acell" fill="#FFFFFF" stroke="#272BA9" stroke-width="0.5" d="M6.883,97.903c-0.638,1.082-1.247,2.114-1.904,3.228
		c0.411,0,0.722,0,1.071,0c0.014-0.146,0.048-0.288,0.038-0.427c-0.027-0.363,0.039-0.578,0.491-0.582
		c0.473-0.004,0.464,0.253,0.494,0.59c0.015,0.17,0.15,0.362,0.287,0.481c0.23,0.201,0.288,0.861,0.016,0.935
		c-0.372,0.102-0.311,0.34-0.316,0.586c-0.004,0.165-0.001,0.329-0.001,0.494c-0.002,0.833-0.023,0.85-0.954,0.703
		c0-0.543,0-1.1,0-1.741c-0.591,0-1.114,0-1.637,0c-0.724,0.001-0.95-0.336-0.668-1.03c0.095-0.234,0.249-0.445,0.382-0.663
		c0.42-0.685,0.877-1.351,1.256-2.058C5.754,97.831,6.184,97.686,6.883,97.903z"/>
	<path class="acell" fill="#FFFFFF" stroke="#272BA9" stroke-width="0.5" d="M81.114,99.538c-0.3,0.017-0.569,0.033-0.912,0.053
		c0,0.653-0.001,1.287,0,1.921c0.001,0.64-0.01,1.28,0.012,1.919c0.015,0.436-0.168,0.558-0.589,0.553
		c-0.406-0.004-0.547-0.134-0.539-0.539c0.02-1.114-0.005-2.23,0.017-3.344c0.008-0.386-0.073-0.604-0.508-0.539
		c-0.37,0.055-0.513-0.091-0.511-0.484c0.003-0.42,0.21-0.479,0.55-0.471c0.584,0.013,1.169,0.002,1.754,0.001
		C81.236,98.607,81.236,98.607,81.114,99.538z"/>
	<path class="acell" fill="#FFFFFF" stroke="#272BA9" stroke-width="0.5" d="M47.847,103.957c-0.769,0-1.551,0.013-2.331-0.017
		c-0.096-0.004-0.259-0.243-0.261-0.375c-0.014-1.518,0.001-3.037-0.001-4.555c-0.001-0.38,0.236-0.385,0.513-0.387
		c0.288-0.002,0.495,0.03,0.49,0.405c-0.014,1.134,0.017,2.269-0.012,3.403c-0.012,0.467,0.151,0.635,0.597,0.572
		c0.09-0.013,0.183-0.002,0.274-0.002C47.996,103,47.996,103,47.847,103.957z"/>
	<path class="acell" fill="#FFFFFF" stroke="#272BA9" stroke-width="0.5" d="M37.892,102.989c0.035,0.159,0.066,0.245,0.07,0.333
		c0.009,0.181,0.003,0.362,0.003,0.635c-0.817,0-1.613,0.011-2.408-0.015c-0.086-0.003-0.236-0.217-0.237-0.334
		c-0.014-1.538,0-3.076-0.009-4.614c-0.002-0.405,0.267-0.361,0.521-0.375c0.29-0.016,0.492,0.034,0.487,0.407
		c-0.012,1.08,0.002,2.161,0.005,3.241c0.001,0.216,0,0.432,0,0.724C36.887,102.989,37.389,102.989,37.892,102.989z"/>
	<path class="acell" fill="#FFFFFF" stroke="#272BA9" stroke-width="0.5" d="M1.737,103.897c0-1.625,0-3.227,0-4.843
		c-0.213-0.024-0.373-0.042-0.577-0.065c0-0.285,0-0.567,0-0.933c0.485-0.08,0.996-0.164,1.582-0.26
		c0.014,0.26,0.034,0.471,0.035,0.681c0.004,1.573,0.004,3.145,0.005,4.718C2.784,104.074,2.765,104.088,1.737,103.897z"/>
	<path class="acell" fill="#FFFFFF" stroke="#272BA9" stroke-width="0.5" d="M62.728,103.882c-0.916,0.196-0.96,0.163-0.96-0.671
		c0.001-1.278,0.003-2.556,0.004-3.835c0-0.825,0.085-0.886,0.956-0.658C62.728,100.438,62.728,102.163,62.728,103.882z"/>
	<path class="acell" fill="#FFFFFF" stroke="#272BA9" stroke-width="0.5" d="M12.004,99.877c0,0.402,0.025,0.806-0.015,1.203
		c-0.012,0.121-0.203,0.224-0.311,0.335c-0.082-0.113-0.208-0.216-0.234-0.341c-0.04-0.192,0.027-0.411-0.026-0.596
		c-0.037-0.131-0.199-0.227-0.305-0.338c-0.105,0.116-0.264,0.216-0.303,0.35c-0.054,0.186,0.014,0.405-0.03,0.596
		c-0.028,0.123-0.164,0.221-0.252,0.329c-0.1-0.101-0.285-0.2-0.288-0.304c-0.023-0.839-0.022-1.679,0.001-2.518
		c0.003-0.111,0.172-0.218,0.265-0.327c0.094,0.121,0.227,0.23,0.271,0.367c0.048,0.149-0.031,0.342,0.025,0.485
		c0.065,0.165,0.216,0.297,0.329,0.443c0.102-0.156,0.232-0.302,0.295-0.472c0.047-0.128-0.025-0.299,0.017-0.432
		c0.045-0.141,0.162-0.26,0.247-0.388c0.105,0.134,0.285,0.26,0.3,0.404C12.031,99.071,12.004,99.476,12.004,99.877z"/>
	<path class="acell" fill="#FFFFFF" stroke="#272BA9" stroke-width="0.5" d="M10.785,106.794c0-0.309-0.016-0.62,0.01-0.927
		c0.008-0.093,0.132-0.176,0.204-0.264c0.069,0.089,0.194,0.177,0.197,0.268c0.018,0.604,0.02,1.209,0.002,1.813
		c-0.003,0.116-0.118,0.228-0.181,0.342c-0.113-0.073-0.266-0.121-0.332-0.224c-0.213-0.331-0.394-0.683-0.587-1.026
		c-0.052,0.011-0.104,0.022-0.156,0.033c0,0.281,0.022,0.566-0.01,0.843c-0.015,0.132-0.134,0.252-0.206,0.377
		c-0.076-0.119-0.213-0.235-0.218-0.357c-0.022-0.585-0.016-1.172,0.001-1.758c0.003-0.105,0.101-0.208,0.155-0.312
		c0.114,0.065,0.27,0.103,0.334,0.201c0.223,0.345,0.415,0.711,0.619,1.069C10.672,106.846,10.729,106.82,10.785,106.794z"/>
	<path class="acell" fill="#FFFFFF" stroke="#272BA9" stroke-width="0.5" d="M3.572,106.829c0-0.304-0.018-0.609,0.009-0.91
		c0.01-0.117,0.122-0.225,0.188-0.337c0.068,0.104,0.191,0.207,0.194,0.313c0.017,0.703,0.009,1.408,0.009,2.182
		c-0.748-0.178-0.637-0.985-1.237-1.284c0,0.341,0.02,0.642-0.011,0.938c-0.011,0.105-0.143,0.198-0.219,0.296
		c-0.068-0.092-0.191-0.182-0.194-0.275c-0.017-0.622-0.016-1.244,0.001-1.866c0.003-0.102,0.111-0.2,0.17-0.3
		c0.109,0.074,0.254,0.125,0.321,0.227c0.22,0.334,0.411,0.687,0.613,1.033C3.468,106.84,3.52,106.835,3.572,106.829z"/>
	<path class="acell" fill="#FFFFFF" stroke="#272BA9" stroke-width="0.5" d="M9.216,101.354c-0.434,0.145-0.614,0.045-0.601-0.372
		c0.017-0.546,0.005-1.093,0.006-1.639c0.001-0.259,0.036-0.525-0.359-0.537c-0.073-0.002-0.213-0.181-0.196-0.244
		c0.031-0.112,0.152-0.274,0.246-0.282c0.398-0.031,0.801-0.03,1.2-0.001c0.101,0.007,0.252,0.153,0.267,0.252
		c0.013,0.087-0.127,0.275-0.212,0.283c-0.337,0.03-0.357,0.236-0.355,0.495C9.22,99.996,9.216,100.683,9.216,101.354z"/>
	<path class="acell" fill="#FFFFFF" stroke="#272BA9" stroke-width="0.5" d="M48.339,105.498c0,0.926,0,1.702,0,2.545
		c-0.721-0.158-0.64-0.985-1.225-1.306c0,0.362,0.015,0.684-0.01,1.002c-0.007,0.094-0.129,0.179-0.199,0.268
		c-0.06-0.093-0.171-0.184-0.173-0.278c-0.015-0.69-0.008-1.38-0.008-2.154c0.748,0.202,0.644,1.003,1.16,1.299
		C48.177,106.536,47.691,105.887,48.339,105.498z"/>
	<path class="acell" fill="#FFFFFF" stroke="#272BA9" stroke-width="0.5" d="M15.361,106.825c0-0.305-0.015-0.612,0.008-0.915
		c0.008-0.102,0.113-0.196,0.174-0.293c0.067,0.089,0.19,0.177,0.193,0.268c0.019,0.621,0.019,1.242,0.008,1.864
		c-0.001,0.09-0.094,0.254-0.137,0.252c-0.109-0.007-0.258-0.059-0.313-0.144c-0.225-0.348-0.421-0.715-0.627-1.075
		c-0.058,0.006-0.115,0.013-0.173,0.019c0,0.291,0.024,0.584-0.011,0.871c-0.015,0.125-0.149,0.235-0.23,0.352
		c-0.059-0.116-0.167-0.231-0.17-0.349c-0.017-0.566-0.015-1.133,0.002-1.699c0.004-0.124,0.098-0.245,0.151-0.367
		c0.124,0.084,0.287,0.142,0.363,0.257c0.218,0.328,0.401,0.679,0.598,1.021C15.253,106.865,15.307,106.845,15.361,106.825z"/>
	<path class="acell" fill="#FFFFFF" stroke="#272BA9" stroke-width="0.5" d="M74.632,105.932c-0.215,0.006-0.431,0.025-0.646,0.014
		c-0.388-0.02-0.656,0.143-0.718,0.523c-0.07,0.433-0.15,0.924,0.334,1.168c0.183,0.092,0.474-0.029,0.715-0.052
		c-0.049-0.257-0.097-0.514-0.169-0.891c0.083-0.015,0.302-0.054,0.61-0.109c0,0.417,0.026,0.761-0.014,1.097
		c-0.014,0.117-0.171,0.267-0.296,0.311c-0.914,0.326-1.557-0.098-1.603-1.082c-0.021-0.455,0.045-0.923,0.476-1.222
		c0.319-0.221,0.788-0.203,1.289,0.04C74.619,105.798,74.625,105.865,74.632,105.932z"/>
	<path class="acell" fill="#FFFFFF" stroke="#272BA9" stroke-width="0.5" d="M29.623,106.862c-0.178,0.023-0.355,0.054-0.534,0.066
		c-0.26,0.017-0.558-0.084-0.563,0.372c-0.005,0.483,0.31,0.391,0.592,0.407c0.215,0.012,0.428,0.043,0.642,0.065
		c-0.001,0.077-0.001,0.153-0.002,0.23c-0.505,0-1.011,0.01-1.515-0.014c-0.057-0.003-0.146-0.199-0.149-0.307
		c-0.013-0.584-0.021-1.17,0.013-1.752c0.007-0.117,0.192-0.299,0.316-0.318c0.322-0.049,0.656-0.038,0.983-0.022
		c0.102,0.005,0.199,0.105,0.298,0.162c-0.106,0.067-0.207,0.179-0.319,0.192c-0.251,0.029-0.507,0.009-0.76,0.009
		c-0.205,0.482-0.082,0.68,0.417,0.65c0.192-0.011,0.387,0.049,0.581,0.077C29.625,106.739,29.624,106.801,29.623,106.862z"/>
	<path class="acell" fill="#FFFFFF" stroke="#272BA9" stroke-width="0.5" d="M68.885,105.6c0.57,0.056,1.168-0.213,1.439,0.392
		c0.112,0.25-0.063,0.628-0.107,0.948c-0.061-0.002-0.122-0.004-0.183-0.006c0.161,0.335,0.321,0.669,0.482,1.004
		c-0.063,0.045-0.126,0.09-0.189,0.134c-0.291-0.395-0.582-0.791-0.873-1.186c-0.055,0.025-0.109,0.051-0.164,0.076
		c-0.013,0.263-0.009,0.529-0.046,0.789c-0.014,0.094-0.126,0.173-0.194,0.259c-0.055-0.082-0.156-0.163-0.157-0.246
		C68.88,107.074,68.885,106.383,68.885,105.6z M69.611,106.788c0.213-0.25,0.323-0.379,0.434-0.508
		c-0.148-0.12-0.284-0.298-0.451-0.336c-0.084-0.019-0.3,0.203-0.32,0.336C69.257,106.395,69.435,106.538,69.611,106.788z"/>
	<path class="acell" fill="#FFFFFF" stroke="#272BA9" stroke-width="0.5" d="M63.658,108.073c-0.178-0.152-0.374-0.287-0.531-0.459
		c-0.182-0.2-0.328-0.431-0.49-0.649c-0.06-0.007-0.12-0.013-0.18-0.02c-0.083,0.244-0.158,0.492-0.252,0.732
		c-0.046,0.118-0.124,0.223-0.188,0.334c-0.068-0.109-0.19-0.216-0.193-0.327c-0.018-0.585-0.014-1.172,0.004-1.757
		c0.003-0.1,0.11-0.198,0.168-0.296c0.07,0.104,0.181,0.201,0.2,0.315c0.033,0.19,0.009,0.39,0.009,0.709
		c0.535-0.431,0.972-0.782,1.409-1.133c0.053,0.063,0.105,0.125,0.158,0.188c-0.157,0.156-0.3,0.33-0.473,0.465
		c-0.363,0.283-0.383,0.573-0.094,0.924c0.216,0.261,0.4,0.547,0.598,0.823C63.756,107.97,63.707,108.021,63.658,108.073z"/>
	<path class="acell" fill="#FFFFFF" stroke="#272BA9" stroke-width="0.5" d="M56.926,105.941c-0.227,0-0.454-0.002-0.681,0
		c-0.493,0.006-0.705,0.277-0.706,0.899c-0.001,0.572,0.22,0.872,0.677,0.858c0.156-0.005,0.439-0.117,0.439-0.18
		c0-0.186-0.106-0.374-0.186-0.555c-0.025-0.055-0.099-0.089-0.271-0.233c0.344-0.053,0.565-0.087,0.84-0.13
		c0.013,0.249,0.016,0.428,0.034,0.604c0.045,0.457,0.007,0.81-0.595,0.864c-0.639,0.057-1.118-0.108-1.213-0.645
		c-0.076-0.429-0.065-0.911,0.054-1.328c0.173-0.604,0.902-0.723,1.61-0.333C56.927,105.823,56.927,105.882,56.926,105.941z"/>
	<path class="acell" fill="#FFFFFF" stroke="#272BA9" stroke-width="0.5" d="M33.85,106.842c-0.001,0.909-0.663,1.456-1.397,1.161
		c-0.579-0.233-0.593-0.752-0.587-1.239c0.006-0.476,0.083-0.961,0.636-1.161C33.231,105.34,33.85,105.909,33.85,106.842z
		 M33.437,106.839c-0.028-0.446-0.071-0.87-0.601-0.929c-0.36-0.041-0.619,0.385-0.618,0.949c0.001,0.522,0.264,0.902,0.636,0.86
		C33.4,107.659,33.398,107.216,33.437,106.839z"/>
	<path class="acell" fill="#FFFFFF" stroke="#272BA9" stroke-width="0.5" d="M79.42,105.595c0.55,0.068,1.129-0.219,1.408,0.342
		c0.131,0.264-0.026,0.672-0.052,1.015c-0.06-0.002-0.119-0.003-0.179-0.005c0.145,0.328,0.29,0.656,0.436,0.984
		c-0.046,0.04-0.091,0.079-0.137,0.119c-0.147-0.17-0.307-0.33-0.436-0.512c-0.147-0.207-0.265-0.435-0.396-0.654
		c-0.067,0.018-0.135,0.036-0.202,0.053c-0.017,0.272-0.018,0.547-0.06,0.815c-0.015,0.094-0.13,0.172-0.199,0.258
		c-0.06-0.078-0.171-0.154-0.173-0.233C79.414,107.071,79.42,106.364,79.42,105.595z M80.625,106.394
		c0.003-0.065,0.005-0.131,0.008-0.196c-0.151-0.088-0.304-0.247-0.452-0.242c-0.133,0.004-0.261,0.188-0.391,0.293
		c0.102,0.116,0.199,0.322,0.306,0.328C80.269,106.586,80.448,106.462,80.625,106.394z"/>
	<path class="acell" fill="#FFFFFF" stroke="#272BA9" stroke-width="0.5" d="M17.861,106.102c-0.219-0.063-0.44-0.181-0.656-0.172
		c-0.188,0.008-0.369,0.16-0.554,0.248c0.129,0.124,0.239,0.284,0.392,0.362c0.191,0.098,0.428,0.105,0.626,0.193
		c0.409,0.183,0.504,0.737,0.201,1.064c-0.35,0.378-1.313,0.363-1.658-0.034c-0.034-0.039-0.011-0.129-0.019-0.266
		c0.28,0.081,0.52,0.216,0.747,0.198c0.233-0.018,0.455-0.185,0.682-0.287c-0.159-0.143-0.302-0.31-0.48-0.42
		c-0.134-0.082-0.351-0.047-0.462-0.144c-0.19-0.165-0.483-0.424-0.45-0.587c0.05-0.248,0.299-0.546,0.538-0.647
		c0.438-0.186,0.869-0.068,1.161,0.322C17.906,105.989,17.883,106.045,17.861,106.102z"/>
	<path class="acell" fill="#FFFFFF" stroke="#272BA9" stroke-width="0.5" d="M53.78,105.554c0.624-0.008,1.035,0.495,1.044,1.277
		c0.009,0.738-0.408,1.246-1.015,1.238c-0.627-0.008-0.952-0.44-0.954-1.268C52.853,106.037,53.205,105.562,53.78,105.554z
		 M54.473,106.869c-0.052-0.226-0.039-0.469-0.154-0.597c-0.148-0.164-0.518-0.376-0.584-0.321
		c-0.222,0.188-0.445,0.468-0.494,0.743c-0.067,0.379-0.054,0.853,0.43,0.995c0.165,0.049,0.451-0.094,0.59-0.238
		C54.395,107.313,54.41,107.06,54.473,106.869z"/>
	<path class="acell" fill="#FFFFFF" stroke="#272BA9" stroke-width="0.5" d="M7.27,107.952c0.288-0.788,0.577-1.576,0.865-2.363
		c0.068-0.003,0.135-0.006,0.203-0.009c0.297,0.782,0.593,1.565,0.89,2.347c-0.031,0.043-0.062,0.087-0.093,0.131
		c-0.13-0.083-0.299-0.137-0.384-0.253c-0.313-0.43-0.706-0.437-1.026-0.003c-0.08,0.109-0.205,0.184-0.31,0.275
		C7.366,108.034,7.318,107.993,7.27,107.952z"/>
	<path class="acell" fill="#FFFFFF" stroke="#272BA9" stroke-width="0.5" d="M41.718,108.012c-0.495,0-0.991,0.013-1.484-0.016
		c-0.062-0.004-0.154-0.224-0.158-0.347c-0.02-0.565-0.02-1.131-0.01-1.696c0.002-0.108,0.081-0.305,0.132-0.307
		c0.487-0.024,0.975-0.014,1.464-0.014c0.003,0.086,0.006,0.171,0.009,0.257c-0.261,0.019-0.533,0-0.78,0.069
		c-0.16,0.045-0.285,0.219-0.425,0.335c0.135,0.102,0.257,0.253,0.409,0.294c0.235,0.064,0.491,0.052,0.738,0.072
		c-0.003,0.071-0.007,0.142-0.01,0.213c-0.236,0.018-0.472,0.054-0.708,0.051c-0.282-0.004-0.444,0.058-0.438,0.393
		c0.007,0.332,0.178,0.393,0.452,0.393c0.273,0,0.546,0.024,0.82,0.037C41.725,107.834,41.722,107.923,41.718,108.012z"/>
	<path class="acell" fill="#FFFFFF" stroke="#272BA9" stroke-width="0.5" d="M4.545,105.611c0.502-0.011,0.996-0.179,1.348,0.291
		c0.332,0.442,0.361,1.33,0.054,1.777c-0.347,0.507-0.873,0.337-1.402,0.347C4.545,107.23,4.545,106.456,4.545,105.611z
		 M4.882,106.814c-0.001,0-0.002,0-0.003,0c0,0.109-0.029,0.229,0.006,0.325c0.071,0.191,0.178,0.369,0.27,0.553
		c0.184-0.143,0.477-0.256,0.527-0.437c0.082-0.297,0.067-0.656-0.027-0.951c-0.05-0.157-0.35-0.236-0.537-0.35
		c-0.079,0.159-0.178,0.312-0.229,0.48C4.853,106.551,4.882,106.687,4.882,106.814z"/>
	<path class="acell" fill="#FFFFFF" stroke="#272BA9" stroke-width="0.5" d="M23.518,106.482c0-0.201-0.02-0.404,0.008-0.601
		c0.014-0.097,0.117-0.181,0.18-0.272c0.061,0.094,0.168,0.184,0.176,0.282c0.027,0.345,0.014,0.693,0.029,1.039
		c0.017,0.387,0.109,0.785,0.568,0.798c0.453,0.012,0.591-0.367,0.614-0.76c0.021-0.364-0.001-0.731,0.026-1.094
		c0.007-0.091,0.13-0.172,0.2-0.258c0.059,0.08,0.17,0.162,0.168,0.24c-0.014,0.508-0.011,1.023-0.097,1.522
		c-0.086,0.501-0.469,0.739-0.964,0.698c-0.517-0.043-0.83-0.357-0.887-0.882c-0.025-0.234-0.004-0.474-0.004-0.711
		C23.53,106.482,23.524,106.482,23.518,106.482z"/>
	<path class="acell" fill="#FFFFFF" stroke="#272BA9" stroke-width="0.5" d="M50.675,106.907c-0.03,0.724-0.39,1.159-0.969,1.17
		c-0.58,0.011-0.944-0.399-1.005-1.135c-0.084-1.003,0.609-1.65,1.392-1.3C50.473,105.814,50.7,106.305,50.675,106.907z
		 M49.102,106.852c0.006,0.109-0.028,0.248,0.026,0.32c0.16,0.212,0.333,0.513,0.545,0.556c0.159,0.032,0.494-0.248,0.56-0.451
		c0.094-0.289,0.078-0.656-0.018-0.947c-0.061-0.186-0.377-0.431-0.537-0.404c-0.204,0.034-0.392,0.298-0.536,0.5
		C49.07,106.525,49.111,106.706,49.102,106.852z"/>
	<path class="acell" fill="#FFFFFF" stroke="#272BA9" stroke-width="0.5" d="M45.888,105.552c0.388,0.366,0.388,2.149,0.008,2.525
		c-0.024-0.248-0.076-0.435-0.054-0.613c0.056-0.459-0.16-0.551-0.571-0.55c-0.416,0-0.686,0.066-0.623,0.561
		c0.014,0.108,0.023,0.229-0.013,0.326c-0.03,0.082-0.119,0.159-0.201,0.196c-0.027,0.012-0.164-0.105-0.165-0.165
		c-0.012-0.677-0.014-1.354,0.002-2.031c0.001-0.062,0.141-0.12,0.217-0.18c0.054,0.12,0.164,0.246,0.153,0.359
		c-0.048,0.477,0.123,0.659,0.619,0.632c0.396-0.021,0.642-0.089,0.58-0.555C45.822,105.922,45.865,105.778,45.888,105.552z"/>
	<path class="acell" fill="#FFFFFF" stroke="#272BA9" stroke-width="0.5" d="M72.648,108.025c-0.282-0.183-0.563-0.509-0.845-0.509
		c-0.292,0-0.583,0.316-1.019,0.582c0.332-0.918,0.615-1.703,0.899-2.489c0.058-0.006,0.115-0.012,0.173-0.019
		c0.299,0.78,0.599,1.559,0.898,2.338C72.719,107.961,72.684,107.993,72.648,108.025z"/>
	<path class="acell" fill="#FFFFFF" stroke="#272BA9" stroke-width="0.5" d="M68.531,107.978c-0.109,0.001-1.827,0.015-1.944,0.016
		c0.298-0.819,0.582-1.601,0.866-2.382c0.06-0.006,0.12-0.012,0.18-0.018C67.924,106.369,68.217,107.145,68.531,107.978z"/>
	<path class="acell" fill="#FFFFFF" stroke="#272BA9" stroke-width="0.5" d="M78.624,106.456c0-0.201-0.017-0.405,0.008-0.603
		c0.011-0.084,0.109-0.158,0.168-0.236c0.066,0.071,0.19,0.144,0.188,0.214c-0.01,0.528,0.003,1.063-0.086,1.58
		c-0.078,0.45-0.469,0.658-0.899,0.667c-0.414,0.008-0.781-0.195-0.857-0.627c-0.092-0.517-0.101-1.049-0.119-1.576
		c-0.003-0.082,0.137-0.168,0.211-0.252c0.054,0.101,0.147,0.2,0.154,0.305c0.023,0.328,0.005,0.658,0.018,0.987
		c0.016,0.411,0.124,0.83,0.61,0.821c0.481-0.009,0.567-0.441,0.599-0.841c0.012-0.145,0.002-0.293,0.002-0.439
		C78.622,106.456,78.623,106.456,78.624,106.456z"/>
	<path class="acell" fill="#FFFFFF" stroke="#272BA9" stroke-width="0.5" d="M65.954,108.113c-0.057-0.254-0.106-0.425-0.133-0.599
		c-0.027-0.176-0.031-0.356-0.053-0.619c-0.383,0.046-0.825-0.028-1.019,0.157c-0.191,0.183-0.129,0.628-0.181,0.977
		c-0.365-0.236-0.407-1.963-0.063-2.447c0.279,0.334-0.136,1.077,0.759,1.059c0.881-0.017,0.343-0.795,0.714-1.031
		C66.268,105.94,66.29,107.639,65.954,108.113z"/>
	<path class="acell" fill="#FFFFFF" stroke="#272BA9" stroke-width="0.5" d="M75.066,106.787c0.006-0.145,0.016-0.291,0.019-0.436
		c0.011-0.801,0.01-0.794,0.824-0.748c0.424,0.024,0.703,0.202,0.724,0.646c0.022,0.462-0.272,0.674-0.684,0.664
		c-0.417-0.011-0.495,0.191-0.469,0.534c0.01,0.126,0.02,0.263-0.02,0.378c-0.027,0.078-0.139,0.127-0.214,0.188
		c-0.052-0.064-0.147-0.125-0.15-0.191c-0.015-0.344-0.007-0.69-0.007-1.035C75.082,106.787,75.074,106.787,75.066,106.787z
		 M76.301,106.344c-0.002-0.059-0.003-0.119-0.005-0.178c-0.161-0.078-0.323-0.215-0.483-0.213c-0.106,0.001-0.21,0.202-0.314,0.314
		c0.113,0.105,0.224,0.294,0.339,0.296C75.99,106.566,76.146,106.424,76.301,106.344z"/>
	<path class="acell" fill="#FFFFFF" stroke="#272BA9" stroke-width="0.5" d="M43.919,105.872c-0.7,0.102-1.509-0.034-1.459,1.036
		c0.046,0.98,0.78,0.788,1.451,0.848c-0.588,0.421-1.202,0.396-1.516,0.021c-0.398-0.477-0.364-1.563,0.062-1.998
		C42.78,105.449,43.409,105.459,43.919,105.872z"/>
	<path class="acell" fill="#FFFFFF" stroke="#272BA9" stroke-width="0.5" d="M34.21,105.648c0.538,0,1.019,0,1.5,0
		c0.015,0.038,0.029,0.075,0.044,0.113c-0.083,0.061-0.161,0.162-0.25,0.174c-0.217,0.028-0.446-0.017-0.656,0.03
		c-0.124,0.028-0.221,0.176-0.33,0.271c0.109,0.117,0.199,0.304,0.33,0.337c0.263,0.068,0.547,0.053,0.823,0.072
		c0.003,0.069,0.007,0.138,0.01,0.207c-0.205,0.026-0.413,0.089-0.613,0.07c-0.435-0.043-0.606,0.119-0.571,0.557
		c0.015,0.182-0.059,0.371-0.092,0.557c-0.065-0.01-0.129-0.02-0.194-0.029C34.21,107.229,34.21,106.451,34.21,105.648z"/>
	<path class="acell" fill="#FFFFFF" stroke="#272BA9" stroke-width="0.5" d="M20.264,105.579c-0.118,0.229-0.134,0.287-0.151,0.288
		c-0.769,0.008-0.688,0.545-0.666,1.054c0.011,0.255,0.024,0.514-0.01,0.765c-0.018,0.134-0.137,0.254-0.21,0.381
		c-0.067-0.019-0.135-0.037-0.202-0.056c0-0.46-0.004-0.921,0.001-1.381c0.004-0.368,0.071-0.771-0.526-0.692
		c-0.062,0.008-0.142-0.117-0.214-0.181c0.058-0.059,0.115-0.168,0.174-0.17C19.026,105.573,19.592,105.579,20.264,105.579z"/>
	<path class="acell" fill="#FFFFFF" stroke="#272BA9" stroke-width="0.5" d="M37.885,105.677c0.615,0,1.231,0,1.846,0
		c0.038,0.055,0.076,0.111,0.114,0.166c-0.083,0.028-0.17,0.086-0.249,0.078c-0.567-0.06-0.616,0.276-0.583,0.712
		c0.022,0.291,0.024,0.587-0.007,0.877c-0.018,0.172-0.119,0.336-0.182,0.504c-0.072-0.16-0.191-0.316-0.206-0.481
		c-0.031-0.345-0.022-0.695-0.001-1.041c0.023-0.375-0.068-0.607-0.508-0.561c-0.077,0.008-0.164-0.089-0.247-0.137
		C37.87,105.754,37.877,105.715,37.885,105.677z"/>
	<path class="acell" fill="#FFFFFF" stroke="#272BA9" stroke-width="0.5" d="M23.246,105.843c-0.066,0.029-0.135,0.089-0.197,0.084
		c-0.683-0.062-0.641,0.391-0.624,0.847c0.015,0.417,0.003,0.835,0.003,1.253c-0.084,0.006-0.168,0.013-0.252,0.019
		c-0.048-0.168-0.13-0.334-0.138-0.503c-0.016-0.328,0.004-0.658,0.018-0.987c0.015-0.355,0.016-0.68-0.498-0.616
		c-0.075,0.009-0.165-0.097-0.248-0.15c0.05-0.063,0.099-0.179,0.15-0.18c0.569-0.013,1.138-0.008,1.708-0.008
		C23.193,105.683,23.22,105.763,23.246,105.843z"/>
	<path class="acell" fill="#FFFFFF" stroke="#272BA9" stroke-width="0.5" d="M58.435,106.396c0.418-0.185,0.412-0.843,1.112-0.756
		c-0.636,0.726-1.155,1.418-0.917,2.415c-0.094-0.011-0.189-0.023-0.283-0.034c-0.044-0.414-0.005-0.86-0.153-1.232
		c-0.156-0.392-0.491-0.712-0.818-1.16C58.064,105.57,58.06,106.244,58.435,106.396z"/>
	<path class="acell" fill="#FFFFFF" stroke="#272BA9" stroke-width="0.5" d="M27.876,105.836c-0.08,0.033-0.165,0.102-0.241,0.093
		c-0.64-0.074-0.599,0.349-0.584,0.769c0.011,0.311,0.017,0.623-0.007,0.932c-0.011,0.142-0.101,0.278-0.155,0.417
		c-0.072-0.013-0.144-0.025-0.217-0.038c0-0.442-0.004-0.883,0.001-1.325c0.005-0.388,0.077-0.812-0.546-0.747
		c-0.056,0.006-0.162-0.091-0.173-0.154c-0.009-0.051,0.087-0.174,0.138-0.175c0.565-0.013,1.131-0.008,1.696-0.008
		C27.819,105.68,27.847,105.758,27.876,105.836z"/>
	<path class="acell" fill="#FFFFFF" stroke="#272BA9" stroke-width="0.5" d="M52.587,107.946c-0.461,0-0.922,0-1.447,0
		c-0.01-0.762-0.111-1.549,0.061-2.325c0.07-0.004,0.141-0.007,0.211-0.01c0.021,0.248,0.045,0.495,0.063,0.743
		c0.007,0.091,0.001,0.182,0,0.274c-0.002,0.956-0.002,0.954,0.911,1.089c0.075,0.011,0.142,0.077,0.213,0.117
		C52.595,107.871,52.591,107.908,52.587,107.946z"/>
	<path class="acell" fill="#FFFFFF" stroke="#272BA9" stroke-width="0.5" d="M20.47,106.781c0-0.311-0.016-0.624,0.011-0.933
		c0.007-0.086,0.143-0.16,0.219-0.24c0.063,0.074,0.18,0.147,0.182,0.222c0.015,0.659,0.015,1.318,0.001,1.977
		c-0.002,0.073-0.12,0.143-0.184,0.214c-0.074-0.084-0.204-0.164-0.211-0.253c-0.026-0.328-0.01-0.658-0.01-0.988
		C20.474,106.781,20.472,106.781,20.47,106.781z"/>
	<path class="acell" fill="#FFFFFF" stroke="#272BA9" stroke-width="0.5" d="M13.182,106.82c0-0.309-0.015-0.62,0.008-0.928
		c0.008-0.099,0.115-0.191,0.177-0.287c0.074,0.084,0.211,0.165,0.213,0.251c0.021,0.636,0.023,1.274,0.007,1.91
		c-0.002,0.087-0.137,0.17-0.21,0.254c-0.065-0.091-0.179-0.178-0.187-0.274C13.166,107.44,13.182,107.129,13.182,106.82z"/>
	<path class="acell" fill="#FFFFFF" stroke="#272BA9" stroke-width="0.5" d="M1.586,108.08c-0.074-0.13-0.221-0.267-0.211-0.39
		c0.057-0.696-0.181-1.437,0.141-2.096c0.067,0.006,0.133,0.013,0.2,0.019c0,0.798,0,1.596,0,2.394
		C1.672,108.031,1.629,108.055,1.586,108.08z"/>
	<path class="acell" fill="#FFFFFF" stroke="#272BA9" stroke-width="0.5" d="M6.615,105.543c0.083,0.098,0.235,0.193,0.238,0.293
		c0.02,0.639,0.015,1.28-0.003,1.92c-0.003,0.093-0.117,0.184-0.18,0.275c-0.069-0.085-0.195-0.168-0.196-0.254
		c-0.016-0.724-0.009-1.448-0.009-2.172C6.515,105.585,6.565,105.564,6.615,105.543z"/>
	<path class="acell" fill="#FFFFFF" stroke="#272BA9" stroke-width="0.5" d="M16.913,101.835c-0.239,0.019-0.381,0.025-0.522,0.042
		c-0.437,0.055-0.541-0.141-0.451-0.543c0.132-0.593,0.234-1.193,0.349-1.79c0.063-0.003,0.126-0.006,0.189-0.009
		C16.618,100.277,16.759,101.02,16.913,101.835z"/>
	<path class="acell" fill="#FFFFFF" stroke="#272BA9" stroke-width="0.5" d="M43.123,101.811c-0.384,0-0.663,0-1.021,0
		c0.14-0.812,0.271-1.568,0.402-2.325c0.054-0.002,0.107-0.005,0.161-0.007C42.812,100.228,42.959,100.976,43.123,101.811z"/>
	<path class="acell" fill="#FFFFFF" stroke="#272BA9" stroke-width="0.5" d="M32.793,100.223c0.135,0.562,0.271,1.124,0.421,1.746
		c-0.338,0-0.616,0-0.989,0c0.141-0.596,0.276-1.169,0.411-1.741C32.689,100.226,32.741,100.224,32.793,100.223z"/>
	<path class="acell" fill="#FFFFFF" stroke="#272BA9" stroke-width="0.5" d="M69.611,106.788c-0.176-0.25-0.353-0.393-0.337-0.507
		c0.019-0.133,0.235-0.356,0.32-0.336c0.167,0.038,0.302,0.216,0.451,0.336C69.934,106.409,69.824,106.538,69.611,106.788z"/>
	<path class="acell" fill="#FFFFFF" stroke="#272BA9" stroke-width="0.5" d="M33.437,106.839c-0.039,0.377-0.037,0.82-0.583,0.88
		c-0.372,0.041-0.635-0.338-0.636-0.86c-0.001-0.564,0.258-0.99,0.618-0.949C33.366,105.969,33.409,106.393,33.437,106.839z"/>
	<path class="acell" fill="#FFFFFF" stroke="#272BA9" stroke-width="0.5" d="M80.625,106.394c-0.177,0.068-0.356,0.191-0.528,0.183
		c-0.107-0.006-0.204-0.212-0.306-0.328c0.13-0.105,0.257-0.288,0.391-0.293c0.148-0.005,0.301,0.154,0.452,0.242
		C80.63,106.263,80.627,106.329,80.625,106.394z"/>
	<path class="acell" fill="#FFFFFF" stroke="#272BA9" stroke-width="0.5" d="M54.473,106.869c-0.063,0.191-0.078,0.444-0.211,0.582
		c-0.139,0.144-0.425,0.287-0.59,0.238c-0.484-0.142-0.497-0.616-0.43-0.995c0.049-0.275,0.272-0.556,0.494-0.743
		c0.066-0.056,0.436,0.157,0.584,0.321C54.434,106.4,54.421,106.644,54.473,106.869z"/>
	<path class="acell" fill="#FFFFFF" stroke="#272BA9" stroke-width="0.5" d="M4.882,106.814c0-0.127-0.029-0.264,0.007-0.38
		c0.052-0.168,0.151-0.321,0.229-0.48c0.187,0.114,0.487,0.192,0.537,0.35c0.094,0.295,0.109,0.655,0.027,0.951
		c-0.05,0.18-0.343,0.293-0.527,0.437c-0.092-0.183-0.199-0.361-0.27-0.553c-0.036-0.096-0.006-0.216-0.006-0.325
		C4.88,106.814,4.881,106.814,4.882,106.814z"/>
	<path class="acell" fill="#FFFFFF" stroke="#272BA9" stroke-width="0.5" d="M49.101,106.851c0.01-0.145-0.031-0.326,0.041-0.427
		c0.144-0.201,0.332-0.466,0.536-0.5c0.161-0.027,0.476,0.219,0.537,0.404c0.096,0.291,0.112,0.659,0.018,0.947
		c-0.066,0.203-0.401,0.483-0.56,0.451c-0.212-0.042-0.385-0.344-0.545-0.556C49.073,107.099,49.108,106.96,49.101,106.851z"/>
	<path class="acell" fill="#FFFFFF" stroke="#272BA9" stroke-width="0.5" d="M76.301,106.344c-0.155,0.08-0.31,0.222-0.463,0.219
		c-0.115-0.002-0.226-0.191-0.339-0.296c0.105-0.112,0.208-0.312,0.314-0.314c0.16-0.002,0.322,0.135,0.483,0.213
		C76.297,106.225,76.299,106.285,76.301,106.344z"/>
</g>
</svg>
